<svg class="gridItem__media" version="1.1" id="Layer_1" xmlns="http://www.w3.org/2000/svg" xmlns:xlink="http://www.w3.org/1999/xlink" x="0px" y="0px" width="1600" height="1200" viewBox="0 0 1600 1200" style="enable-background:new 0 0 1600 1200;" xml:space="preserve" fill="none">
	
<path d="M403 183.2L148.21 602.7C143.481 609.121 140.93 616.886 140.93 624.86L227.69 1021.5H1365.36L1452.12 659C1452.12 651.577 1449.91 644.321 1445.77 638.16L1195.13 184.52C1191.71 179.435 1187.1 175.268 1181.69 172.387C1176.29 169.506 1170.26 167.999 1164.13 168H433.06C427.209 168.003 421.441 169.38 416.219 172.02C410.998 174.66 406.47 178.49 403 183.2V183.2Z" fill="#F4F4F4"/>
<path d="M1410.67 1023H176.08C175.687 1022.95 175.327 1022.75 175.066 1022.45C174.805 1022.15 174.661 1021.77 174.661 1021.38C174.661 1020.98 174.805 1020.6 175.066 1020.3C175.327 1020 175.687 1019.8 176.08 1019.75H1410.67C1411.06 1019.8 1411.42 1020 1411.68 1020.3C1411.94 1020.6 1412.09 1020.98 1412.09 1021.38C1412.09 1021.77 1411.94 1022.15 1411.68 1022.45C1411.42 1022.75 1411.06 1022.95 1410.67 1023V1023Z" fill="#B2B6BB"/>
<path d="M370.48 885C363.75 788.37 356.29 782 356 781.76L356.47 780.88C356.8 781.03 364.6 785.81 371.47 884.97L370.48 885Z" fill="#3F4249"/>
<path d="M377.46 885L376.46 884.94C380.89 814.32 376.07 775.8 376.02 775.42L377.02 775.29C377.07 775.68 381.9 814.29 377.47 885" fill="#3F4249"/>
<path d="M383.53 887.14C378.15 843.14 391.85 809.55 391.99 809.21L392.91 809.6C392.77 809.93 379.18 843.25 384.52 887.02L383.53 887.14Z" fill="#3F4249"/>
<path d="M389.14 892.51C386.893 876.794 387.015 860.83 389.5 845.15L390.5 845.33C388.042 860.892 387.924 876.733 390.15 892.33L389.14 892.51Z" fill="#3F4249"/>
<path d="M392.16 810L396.5 809.64C399.586 809.384 402.581 808.467 405.28 806.95C406.595 806.179 407.957 805.495 409.36 804.9C414.73 802.74 420.73 803.13 426.51 802.84C435.973 802.349 445.242 799.969 453.77 795.84C454.281 795.634 454.712 795.269 455 794.8C455.89 793.17 454.24 791.72 452.81 790.85C445.49 786.34 438.04 781.77 429.75 779.53C421.46 777.29 412.03 777.67 404.95 782.53C396.63 788.25 393.6 800 392.2 810" class="change-color-in-svg" fill="#4D61FC" style="fill: rgb(255, 95, 109);"/>
<path opacity="0.3" d="M455.06 794.26C454.803 794.171 454.555 794.057 454.32 793.92L452.26 792.84C450.48 791.9 447.91 790.52 444.66 788.96C440.878 787.103 436.939 785.584 432.89 784.42C427.935 783.004 422.748 782.586 417.63 783.19C412.504 783.767 407.665 785.855 403.73 789.19C400.647 792.052 398.18 795.512 396.48 799.36C394.96 802.62 394.02 805.36 393.33 807.28C393.01 808.19 392.76 808.92 392.56 809.47C392.481 809.731 392.381 809.985 392.26 810.23C392.292 809.96 392.356 809.695 392.45 809.44C392.62 808.87 392.84 808.13 393.12 807.21C393.96 804.486 394.962 801.815 396.12 799.21C397.797 795.28 400.269 791.739 403.38 788.81C407.389 785.39 412.332 783.251 417.57 782.67C422.744 782.042 427.992 782.464 433 783.91C437.072 785.103 441.025 786.67 444.81 788.59C448.05 790.2 450.59 791.65 452.34 792.65L454.34 793.82C454.577 793.949 454.805 794.096 455.02 794.26" fill="black"/>
<path opacity="0.3" d="M444.63 799.87C444.54 800 438.86 796.32 431.94 791.66C425.02 787 419.49 783.11 419.58 782.97C419.67 782.83 425.34 786.52 432.26 791.18C439.18 795.84 444.72 799.74 444.63 799.87Z" fill="black"/>
<path opacity="0.3" d="M438.57 782.67C437.237 783.133 435.841 783.386 434.43 783.42C433.028 783.612 431.606 783.592 430.21 783.36C431.588 783.119 432.982 782.978 434.38 782.94C435.768 782.746 437.169 782.656 438.57 782.67" fill="black"/>
<path opacity="0.3" d="M413.7 779.43C413.238 780.496 412.611 781.481 411.84 782.35C411.181 783.348 410.387 784.25 409.48 785.03C409.936 783.965 410.565 782.981 411.34 782.12C411.995 781.116 412.79 780.21 413.7 779.43" fill="black"/>
<path opacity="0.3" d="M418.79 803.21C417.828 802.818 416.913 802.321 416.06 801.73C414.42 800.73 412.2 799.28 409.83 797.56C407.46 795.84 405.37 794.21 403.83 793.02C402.982 792.428 402.192 791.759 401.47 791.02C402.388 791.504 403.258 792.073 404.07 792.72L410.13 797.12C412.49 798.83 414.66 800.34 416.24 801.42C417.125 801.957 417.964 802.566 418.75 803.24" fill="black"/>
<path d="M403.94 948H360.94L352.94 889H411.94L403.94 948Z" fill="#61656D"/>
<path d="M416.94 898H347.94L346.94 885H417.94L416.94 898Z" fill="#61656D"/>
<path opacity="0.2" d="M354.17 898H410.73L403.94 948L397.15 947.54L400.94 902L354.6 901.22L354.17 898Z" fill="black"/>
<path opacity="0.2" d="M402.17 885.09L400.17 898H416.94L417.94 885L402.17 885.09Z" fill="black"/>
<g opacity="0.2">
<g opacity="0.2">
<path opacity="0.2" d="M407.95 912.85H356.79V913.85H407.95V912.85Z" fill="white"/>
</g>
</g>
<g opacity="0.2">
<g opacity="0.2">
<path opacity="0.2" d="M407.95 916.85H356.79V917.85H407.95V916.85Z" fill="white"/>
</g>
</g>
<path d="M357.16 781.3C353.02 778.16 348.64 777.55 343.45 777.75C338.253 778.1 333.167 779.413 328.45 781.62C320.34 785.18 312.71 790.41 307.86 797.83C303.01 805.25 301.32 815.06 304.95 823.14C305.233 823.988 305.821 824.701 306.6 825.14C307.498 825.398 308.459 825.327 309.31 824.94C318.54 821.94 327.84 818.94 336.31 814.17C344.78 809.4 352.52 802.9 357.08 794.33C358.249 792.305 358.991 790.063 359.26 787.74C359.387 786.58 359.264 785.406 358.9 784.297C358.536 783.188 357.939 782.17 357.15 781.31" class="change-color-in-svg" fill="#4D61FC" style="fill: rgb(255, 95, 109);"/>
<path opacity="0.3" d="M357.24 780.33C357.025 780.441 356.801 780.531 356.57 780.6L354.64 781.26L353.24 781.73C352.73 781.91 352.19 782.14 351.6 782.37C350.44 782.84 349.08 783.31 347.6 784.01L345.34 785.01C344.56 785.37 343.77 785.81 342.94 786.24C341.27 787.06 339.58 788.11 337.77 789.17C333.929 791.593 330.279 794.304 326.85 797.28C323.456 800.303 320.3 803.582 317.41 807.09C316.13 808.74 314.87 810.28 313.84 811.84C313.32 812.61 312.78 813.33 312.32 814.06C311.86 814.79 311.43 815.5 311.01 816.17C310.14 817.5 309.5 818.78 308.88 819.88C308.58 820.44 308.29 820.94 308.04 821.42L307.4 822.75C307.03 823.51 306.73 824.11 306.49 824.59C306.397 824.809 306.279 825.017 306.14 825.21C306.198 824.978 306.282 824.753 306.39 824.54C306.6 824.05 306.86 823.43 307.2 822.66L307.79 821.3C308.03 820.81 308.31 820.3 308.6 819.73C309.19 818.62 309.81 817.31 310.66 815.96L311.94 813.82C312.4 813.08 312.94 812.35 313.45 811.57C314.45 809.99 315.72 808.42 317 806.75C322.738 799.608 329.675 793.517 337.5 788.75C339.32 787.69 341.03 786.65 342.72 785.84C343.56 785.43 344.36 784.99 345.15 784.63L347.44 783.63C348.89 782.96 350.26 782.51 351.44 782.07C352.04 781.85 352.59 781.64 353.1 781.47L354.52 781.05L356.52 780.49C356.747 780.413 356.981 780.359 357.22 780.33" fill="black"/>
<path opacity="0.3" d="M324.9 797.84C321.607 799.099 318.249 800.181 314.84 801.08C311.481 802.16 308.066 803.058 304.61 803.77C307.903 802.51 311.261 801.429 314.67 800.53C320.28 798.89 324.86 797.68 324.9 797.84Z" fill="black"/>
<path opacity="0.3" d="M324.49 820.05C324.311 819.017 324.238 817.968 324.27 816.92C324.27 814.98 324.21 812.3 324.27 809.34C324.33 806.38 324.51 803.7 324.67 801.77C324.696 800.719 324.83 799.674 325.07 798.65C325.163 799.695 325.163 800.745 325.07 801.79C325 803.92 324.92 806.5 324.84 809.35C324.76 812.2 324.7 814.79 324.65 816.92C324.673 817.967 324.61 819.014 324.46 820.05" fill="black"/>
<path opacity="0.3" d="M343.52 810.36C343.36 810.36 342.86 804.92 342.39 798.19C341.92 791.46 341.68 786 341.84 785.99C342 785.98 342.5 791.42 342.97 798.15C343.44 804.88 343.68 810.35 343.52 810.36Z" fill="black"/>
<path opacity="0.3" d="M319.83 785.46C320.902 785.331 321.983 785.298 323.06 785.36C325.06 785.36 327.8 785.43 330.83 785.53C333.86 785.63 336.61 785.76 338.59 785.87C339.67 785.878 340.748 785.982 341.81 786.18C340.739 786.315 339.657 786.349 338.58 786.28C336.58 786.28 333.84 786.21 330.81 786.11C327.78 786.01 325.03 785.89 323.04 785.77C321.963 785.763 320.889 785.659 319.83 785.46" fill="black"/>
<path d="M348.84 760.27L343.5 769.94C343.38 770.16 343.21 770.41 342.96 770.44C342.71 770.47 342.47 770.19 342.31 769.96L328.21 748.31L331.46 746.46L348.84 760.27Z" class="change-color-in-svg" fill="#4D61FC" style="fill: rgb(255, 95, 109);"/>
<path opacity="0.2" d="M348.84 760.27L343.5 769.94C343.38 770.16 343.21 770.41 342.96 770.44C342.71 770.47 342.47 770.19 342.31 769.96L328.21 748.31L331.46 746.46L348.84 760.27Z" fill="black"/>
<path d="M377.46 777.69L329.33 749.29C328.803 749.06 328.385 748.638 328.16 748.11C327.97 747.4 328.5 746.71 329.02 746.18C332.326 742.745 336.334 740.065 340.771 738.322C345.209 736.579 349.97 735.814 354.73 736.08C359.492 736.417 364.1 737.91 368.155 740.429C372.209 742.949 375.589 746.419 378 750.54C382.65 758.83 382.8 769.81 377.48 777.69" class="change-color-in-svg" fill="#4D61FC" style="fill: rgb(255, 95, 109);"/>
<path opacity="0.3" d="M336.27 740.23C336.474 740.169 336.687 740.142 336.9 740.15C337.31 740.15 337.9 740.05 338.72 740.06C340.955 740.027 343.188 740.204 345.39 740.59C352.73 741.825 359.563 745.135 365.083 750.128C370.602 755.122 374.578 761.59 376.54 768.77C377.143 770.928 377.542 773.138 377.73 775.37C377.782 775.835 377.808 776.302 377.81 776.77C377.771 777.144 377.644 777.504 377.44 777.82C377.583 777.018 377.606 776.199 377.51 775.39C376.545 766.962 372.895 759.068 367.098 752.875C361.301 746.682 353.665 742.519 345.32 741C343.142 740.586 340.935 740.349 338.72 740.29C337.14 740.29 336.27 740.29 336.27 740.29" fill="black"/>
<path opacity="0.3" d="M370.94 758.09C370.175 758.548 369.359 758.917 368.51 759.19C366.98 759.8 364.83 760.57 362.44 761.33C360.05 762.09 357.84 762.7 356.24 763.09C355.388 763.354 354.509 763.521 353.62 763.59C354.424 763.206 355.265 762.905 356.13 762.69L362.26 760.78L368.37 758.78C369.198 758.447 370.06 758.206 370.94 758.06" fill="black"/>
<path opacity="0.3" d="M363.36 737.73C363.792 739.486 363.984 741.292 363.93 743.1C364.069 744.902 363.971 746.714 363.64 748.49C363.47 748.49 363.43 746.08 363.36 743.11C363.216 741.32 363.216 739.52 363.36 737.73" fill="black"/>
<path opacity="0.3" d="M328.91 748.75C330.042 748.246 331.212 747.835 332.41 747.52C334.59 746.85 337.64 745.99 341.03 745.18C344.42 744.37 347.53 743.73 349.78 743.34C350.986 743.065 352.214 742.898 353.45 742.84C352.277 743.226 351.077 743.526 349.86 743.74C347.63 744.23 344.56 744.92 341.17 745.74C337.78 746.56 334.73 747.34 332.52 747.91C331.34 748.281 330.133 748.562 328.91 748.75" fill="black"/>
<path d="M397.56 831.46C393.41 830.37 388.47 834.4 387.62 838.6C386.77 842.8 388.34 847.09 390.18 850.96C394.27 859.52 399.9 867.46 407.32 873.37C414.74 879.28 424.03 883.07 433.51 883.02C431.76 874.88 433.98 866.38 433 858.12C432.141 850.838 428.836 844.064 423.626 838.904C418.416 833.745 411.61 830.507 404.32 829.72C401.67 829.43 398.61 829.02 397.56 831.46Z" class="change-color-in-svg" fill="#4D61FC" style="fill: rgb(255, 95, 109);"/>
<path opacity="0.3" d="M433.51 883C433.302 882.931 433.104 882.837 432.92 882.72C432.375 882.432 431.856 882.098 431.37 881.72C429.63 880.211 428.236 878.345 427.28 876.25C426.62 874.97 425.88 873.58 425.16 872.03C424.44 870.48 423.72 868.84 422.93 867.11C422.127 865.3 421.215 863.54 420.2 861.84C419.073 860.041 417.813 858.33 416.43 856.72C413.59 853.38 410.55 850.5 407.91 847.72C405.523 845.312 403.348 842.702 401.41 839.92C400.111 838.036 399.046 836.001 398.24 833.86C398.023 833.281 397.839 832.69 397.69 832.09C397.618 831.884 397.574 831.668 397.56 831.45C397.61 831.45 397.84 832.3 398.45 833.78C399.333 835.864 400.439 837.845 401.75 839.69C403.716 842.418 405.904 844.98 408.29 847.35C410.94 850.07 414 852.95 416.87 856.35C418.275 857.984 419.548 859.726 420.68 861.56C421.707 863.28 422.622 865.063 423.42 866.9C424.18 868.64 424.906 870.287 425.6 871.84C426.29 873.38 427.01 874.84 427.6 876.07C428.502 878.145 429.819 880.013 431.47 881.56C432.68 882.56 433.47 882.99 433.47 883.05" fill="black"/>
<path opacity="0.3" d="M412.09 876.26C412.104 875.318 412.231 874.381 412.47 873.47C412.79 871.76 413.33 869.42 414.04 866.87C414.75 864.32 415.53 862.04 416.15 860.41C416.427 859.513 416.806 858.65 417.28 857.84C417.118 858.765 416.867 859.673 416.53 860.55C416.02 862.2 415.32 864.48 414.6 867.02C413.88 869.56 413.29 871.88 412.87 873.56C412.689 874.481 412.428 875.384 412.09 876.26Z" fill="black"/>
<path opacity="0.3" d="M432.73 856.29C431.739 856.15 430.763 855.926 429.81 855.62C428.02 855.15 425.56 854.51 422.81 853.89C420.06 853.27 417.56 852.8 415.75 852.45C414.76 852.323 413.783 852.109 412.83 851.81C413.836 851.779 414.842 851.86 415.83 852.05C417.67 852.29 420.2 852.71 422.95 853.33C425.7 853.95 428.17 854.66 429.95 855.23C430.923 855.48 431.865 855.835 432.76 856.29" fill="black"/>
<path opacity="0.3" d="M396.72 862.09C396.758 861.002 396.906 859.919 397.16 858.86C397.53 856.86 398.11 854.16 398.88 851.19C399.65 848.22 400.48 845.57 401.13 843.66C401.426 842.623 401.825 841.618 402.32 840.66C402.135 841.733 401.867 842.789 401.52 843.82C400.97 845.75 400.21 848.41 399.44 851.37C398.67 854.33 398 857 397.56 859C397.367 860.068 397.086 861.119 396.72 862.14" fill="black"/>
<path opacity="0.3" d="M423.22 838.89C423.22 839.04 418.03 838.62 411.67 837.95C407.817 837.642 403.982 837.138 400.18 836.44C404.043 836.559 407.898 836.873 411.73 837.38C415.583 837.687 419.418 838.191 423.22 838.89" fill="black"/>
<path d="M377.13 790.49C376.78 786.72 372.97 783.87 369.18 783.83C365.39 783.79 361.86 786.06 359.54 789.06C357.22 792.06 355.95 795.72 354.9 799.36C352.35 808.25 350.95 817.59 352.04 826.77C353.13 835.95 356.86 844.99 363.45 851.48C364.52 852.48 365.91 853.59 367.38 853.27C368.17 853.031 368.883 852.59 369.45 851.99C375.904 846.086 381.019 838.87 384.453 830.825C387.888 822.781 389.561 814.095 389.36 805.35C389.25 801.86 388.8 798.23 386.86 795.35C384.92 792.47 380.42 789.35 377.13 790.52" class="change-color-in-svg" fill="#4D61FC" style="fill: rgb(255, 95, 109);"/>
<path opacity="0.3" d="M365.51 852.74C365.464 852.53 365.44 852.315 365.44 852.1C365.44 851.61 365.39 851 365.36 850.25C365.29 848.64 365.27 846.31 365.36 843.43C365.45 840.55 365.61 837.13 365.96 833.34C366.31 829.55 366.87 825.34 367.65 821.07C368.43 816.8 369.4 812.66 370.39 808.97C371.38 805.28 372.39 801.97 373.39 799.3C374.39 796.63 375.19 794.4 375.82 792.91C376.12 792.22 376.36 791.65 376.55 791.2C376.636 791.002 376.733 790.808 376.84 790.62C376.81 790.837 376.749 791.049 376.66 791.25L376 793C375.43 794.51 374.65 796.7 373.75 799.44C372.85 802.18 371.85 805.44 370.87 809.12C369.89 812.8 368.98 816.86 368.19 821.18C367.4 825.5 366.86 829.62 366.46 833.4C366.06 837.18 365.84 840.59 365.74 843.45C365.64 846.31 365.58 848.65 365.58 850.25C365.58 851.01 365.58 851.62 365.58 852.11C365.591 852.325 365.575 852.54 365.53 852.75" fill="black"/>
<path opacity="0.3" d="M368.05 821.23C367.494 822.006 366.85 822.714 366.13 823.34C364.89 824.58 363.13 826.25 361.13 828.02C359.13 829.79 357.23 831.32 355.84 832.39C355.122 833.017 354.337 833.564 353.5 834.02C354.129 833.308 354.826 832.658 355.58 832.08L360.75 827.59L365.88 823.04C366.558 822.372 367.294 821.767 368.08 821.23" fill="black"/>
<path opacity="0.3" d="M383.28 833.5C382.544 832.608 381.876 831.662 381.28 830.67L376.52 823.73L371.67 816.86C370.945 815.949 370.296 814.979 369.73 813.96C370.564 814.778 371.324 815.668 372 816.62C373.33 818.31 375.12 820.7 377 823.4C378.88 826.1 380.5 828.61 381.62 830.45C382.279 831.395 382.848 832.4 383.32 833.45" fill="black"/>
<path opacity="0.3" d="M375.3 794.92C375.39 795.05 370.3 798.46 364 802.52C357.7 806.58 352.48 809.78 352.39 809.65C352.3 809.52 357.39 806.11 363.69 802.04C369.99 797.97 375.22 794.78 375.3 794.92Z" fill="black"/>
<path opacity="0.3" d="M389.57 810.32C384.343 805.74 379.369 800.879 374.67 795.76C377.351 797.97 379.905 800.331 382.32 802.83C384.876 805.187 387.297 807.688 389.57 810.32" fill="black"/>
<path d="M414.58 916.47V947.47H383.58V916.47H380.58V947.47H349.58V916.47H346.58V1021.47H349.58V956.47H380.58V1021.47H383.58V956.47H414.58V1021.47H417.58V956.47V947.47V916.47H414.58Z" fill="#3F4249"/>
<g opacity="0.1">
<g opacity="0.1">
<g opacity="0.1">
<g opacity="0.1">
<path opacity="0.1" d="M450.64 417.03H401.81V467.58H450.64V417.03Z" fill="black"/>
</g>
</g>
</g>
</g>
<path d="M710.34 340.34H331V618.58H710.34V340.34Z" fill="#DADDDF"/>
<path d="M716 340.34H710.34V618.58H716V340.34Z" fill="#E2E2E2"/>
<path opacity="0.1" d="M716 340.34H710.34V618.58H716V340.34Z" fill="black"/>
<path d="M700.86 351.36H341.84V608.67H700.86V351.36Z" fill="#F4F4F4"/>
<path d="M350.66 351.36H342.99V608.67H350.66V351.36Z" fill="#DADDDF"/>
<path opacity="0.1" d="M350.66 351.36H342.99V608.67H350.66V351.36Z" fill="black"/>
<path d="M432.29 437.16H378.28V487.71H432.29V437.16Z" fill="white"/>
<path opacity="0.2" d="M424.41 453.25H385C384.799 453.25 384.605 453.33 384.463 453.473C384.32 453.615 384.24 453.808 384.24 454.01V454.01C384.24 454.212 384.32 454.405 384.463 454.547C384.605 454.69 384.799 454.77 385 454.77H424.43C424.53 454.77 424.628 454.75 424.72 454.712C424.811 454.674 424.894 454.618 424.964 454.547C425.034 454.476 425.089 454.392 425.126 454.3C425.163 454.208 425.182 454.109 425.18 454.01V454.01C425.182 453.911 425.163 453.812 425.126 453.72C425.089 453.628 425.034 453.544 424.964 453.473C424.894 453.402 424.811 453.346 424.72 453.308C424.628 453.27 424.53 453.25 424.43 453.25" fill="black"/>
<path opacity="0.2" d="M424.41 461.25H385C384.8 461.25 384.609 461.329 384.466 461.469C384.324 461.609 384.243 461.8 384.24 462V462.05C384.243 462.25 384.324 462.441 384.466 462.581C384.609 462.721 384.8 462.8 385 462.8H424.43C424.629 462.8 424.82 462.721 424.961 462.58C425.101 462.44 425.18 462.249 425.18 462.05V462C425.18 461.801 425.101 461.61 424.961 461.47C424.82 461.329 424.629 461.25 424.43 461.25" fill="black"/>
<path opacity="0.2" d="M424.41 469.13H385C384.799 469.13 384.605 469.21 384.463 469.352C384.32 469.495 384.24 469.688 384.24 469.89C384.24 470.091 384.32 470.285 384.463 470.427C384.605 470.57 384.799 470.65 385 470.65H424.43C424.53 470.65 424.628 470.63 424.72 470.592C424.811 470.554 424.894 470.497 424.964 470.427C425.034 470.356 425.089 470.272 425.126 470.18C425.163 470.088 425.182 469.989 425.18 469.89V469.89C425.182 469.791 425.163 469.692 425.126 469.6C425.089 469.508 425.034 469.424 424.964 469.353C424.894 469.282 424.811 469.226 424.72 469.188C424.628 469.15 424.53 469.13 424.43 469.13" fill="black"/>
<path opacity="0.2" d="M419.12 477.13H389.12C388.921 477.13 388.729 477.209 388.586 477.349C388.444 477.489 388.363 477.68 388.36 477.88V477.93C388.363 478.13 388.444 478.32 388.586 478.461C388.729 478.601 388.921 478.68 389.12 478.68H419.12C419.318 478.677 419.508 478.597 419.648 478.457C419.788 478.317 419.868 478.128 419.87 477.93V477.88C419.868 477.682 419.788 477.493 419.648 477.352C419.508 477.212 419.318 477.132 419.12 477.13Z" fill="black"/>
<path opacity="0.3" d="M406.15 443.32C406.153 443.589 406.101 443.857 405.998 444.106C405.895 444.355 405.743 444.581 405.55 444.77C405.164 445.152 404.644 445.368 404.1 445.37C403.835 445.368 403.574 445.314 403.33 445.21C403.088 445.106 402.87 444.952 402.69 444.76C402.502 444.57 402.359 444.341 402.27 444.09C402.18 443.843 402.139 443.582 402.15 443.32C402.15 443.059 402.202 442.802 402.303 442.562C402.404 442.322 402.552 442.105 402.739 441.923C402.925 441.741 403.146 441.599 403.389 441.504C403.631 441.409 403.89 441.363 404.15 441.37C404.668 441.382 405.163 441.59 405.534 441.951C405.905 442.313 406.125 442.802 406.15 443.32" fill="black"/>
<path opacity="0.1" d="M506.7 512.43H452.69V587.79H506.7V512.43Z" fill="black"/>
<path d="M504.11 507.24H450.1V582.6H504.11V507.24Z" fill="white"/>
<path opacity="0.2" d="M496.22 523.34H456.79C456.59 523.342 456.399 523.424 456.259 523.566C456.119 523.708 456.04 523.9 456.04 524.1V524.1C456.04 524.299 456.119 524.489 456.26 524.63C456.4 524.771 456.591 524.85 456.79 524.85H496.22C496.319 524.851 496.418 524.833 496.51 524.796C496.602 524.758 496.686 524.704 496.757 524.634C496.828 524.564 496.884 524.481 496.922 524.389C496.96 524.298 496.98 524.199 496.98 524.1V524.1C496.98 523.898 496.9 523.705 496.757 523.562C496.615 523.42 496.422 523.34 496.22 523.34Z" fill="black"/>
<path opacity="0.2" d="M496.22 571.79H456.79C456.59 571.793 456.399 571.874 456.259 572.016C456.119 572.158 456.04 572.35 456.04 572.55V572.55C456.04 572.75 456.119 572.942 456.259 573.084C456.399 573.226 456.59 573.307 456.79 573.31H496.22C496.422 573.31 496.615 573.23 496.757 573.087C496.9 572.945 496.98 572.752 496.98 572.55V572.55C496.98 572.348 496.9 572.155 496.757 572.013C496.615 571.87 496.422 571.79 496.22 571.79" fill="black"/>
<path opacity="0.2" d="M496.22 531.33H456.79C456.59 531.333 456.399 531.414 456.259 531.556C456.119 531.698 456.04 531.89 456.04 532.09V532.09C456.04 532.29 456.119 532.482 456.259 532.624C456.399 532.766 456.59 532.847 456.79 532.85H496.22C496.422 532.85 496.615 532.77 496.757 532.627C496.9 532.485 496.98 532.292 496.98 532.09C496.98 531.889 496.9 531.695 496.757 531.553C496.615 531.41 496.422 531.33 496.22 531.33Z" fill="black"/>
<path opacity="0.2" d="M496.22 539.22H456.79C456.592 539.222 456.403 539.302 456.263 539.442C456.122 539.582 456.043 539.772 456.04 539.97V539.97C456.043 540.168 456.122 540.357 456.263 540.497C456.403 540.637 456.592 540.717 456.79 540.72H496.22C496.418 540.725 496.611 540.653 496.757 540.518C496.902 540.384 496.99 540.198 497 540C496.997 539.8 496.916 539.609 496.774 539.469C496.632 539.328 496.44 539.25 496.24 539.25" fill="black"/>
<path opacity="0.2" d="M496.22 555.56H456.79C456.592 555.563 456.403 555.642 456.263 555.783C456.122 555.923 456.043 556.112 456.04 556.31V556.36C456.04 556.559 456.119 556.75 456.26 556.89C456.4 557.031 456.591 557.11 456.79 557.11H496.22C496.319 557.111 496.418 557.093 496.51 557.056C496.602 557.019 496.686 556.964 496.757 556.894C496.828 556.824 496.884 556.741 496.922 556.649C496.96 556.558 496.98 556.459 496.98 556.36V556.31C496.977 556.11 496.896 555.919 496.754 555.779C496.612 555.639 496.42 555.56 496.22 555.56" fill="black"/>
<path opacity="0.2" d="M496.22 563.45H456.79C456.591 563.45 456.4 563.529 456.26 563.67C456.119 563.811 456.04 564.001 456.04 564.2V564.2C456.04 564.4 456.119 564.592 456.259 564.734C456.399 564.876 456.59 564.958 456.79 564.96H496.22C496.422 564.96 496.615 564.88 496.757 564.738C496.9 564.595 496.98 564.402 496.98 564.2C496.98 564.101 496.96 564.003 496.922 563.911C496.884 563.819 496.828 563.736 496.757 563.666C496.686 563.597 496.602 563.542 496.51 563.504C496.418 563.467 496.319 563.449 496.22 563.45Z" fill="black"/>
<path opacity="0.2" d="M490.93 547.21H460.93C460.728 547.21 460.535 547.29 460.393 547.433C460.25 547.575 460.17 547.768 460.17 547.97V547.97C460.17 548.171 460.25 548.365 460.393 548.507C460.535 548.65 460.728 548.73 460.93 548.73H490.93C491.131 548.73 491.325 548.65 491.467 548.507C491.61 548.365 491.69 548.171 491.69 547.97V547.97C491.69 547.768 491.61 547.575 491.467 547.433C491.325 547.29 491.131 547.21 490.93 547.21" fill="black"/>
<path opacity="0.3" d="M478 513.4C478.02 513.81 477.913 514.217 477.693 514.565C477.474 514.912 477.153 515.183 476.774 515.342C476.394 515.5 475.976 515.538 475.574 515.45C475.173 515.362 474.808 515.153 474.53 514.85C474.35 514.656 474.211 514.428 474.12 514.18C474.026 513.931 473.985 513.666 474 513.4C474.001 512.886 474.206 512.393 474.57 512.03C474.749 511.848 474.962 511.704 475.197 511.607C475.433 511.509 475.685 511.459 475.94 511.46C476.467 511.457 476.975 511.656 477.359 512.018C477.742 512.379 477.972 512.874 478 513.4" fill="black"/>
<path opacity="0.15" d="M480.61 385.92C480.61 385.92 523.93 377.92 534.84 388.73C545.75 399.54 541.84 447.17 541.84 447.17H480.61V385.92Z" fill="black"/>
<path d="M473.59 377.17C473.59 377.17 510.1 371.99 520.91 382.79C531.72 393.59 534.73 438.42 534.73 438.42H473.59V377.17Z" fill="#E2E2E2"/>
<path opacity="0.3" d="M506.32 382.79C506.282 383.336 506.037 383.846 505.636 384.218C505.234 384.589 504.707 384.794 504.16 384.79C503.888 384.795 503.619 384.744 503.368 384.64C503.117 384.537 502.89 384.384 502.7 384.19C502.324 383.801 502.112 383.282 502.11 382.74C502.089 382.461 502.13 382.181 502.23 381.92C502.329 381.66 502.479 381.423 502.67 381.22C502.863 381.018 503.094 380.855 503.35 380.74C503.606 380.631 503.882 380.577 504.16 380.58C504.733 380.581 505.282 380.807 505.69 381.21C505.89 381.411 506.049 381.65 506.157 381.913C506.265 382.175 506.32 382.456 506.32 382.74" fill="black"/>
<path d="M522.31 393.16H486.77C486.432 393.138 486.093 393.186 485.774 393.301C485.455 393.416 485.163 393.594 484.916 393.826C484.669 394.058 484.472 394.338 484.337 394.649C484.202 394.961 484.133 395.296 484.133 395.635C484.133 395.974 484.202 396.309 484.337 396.62C484.472 396.931 484.669 397.211 484.916 397.443C485.163 397.675 485.455 397.854 485.774 397.969C486.093 398.083 486.432 398.131 486.77 398.11H522.31C522.648 398.131 522.988 398.083 523.306 397.969C523.625 397.854 523.918 397.675 524.165 397.443C524.412 397.211 524.609 396.931 524.743 396.62C524.878 396.309 524.948 395.974 524.948 395.635C524.948 395.296 524.878 394.961 524.743 394.649C524.609 394.338 524.412 394.058 524.165 393.826C523.918 393.594 523.625 393.416 523.306 393.301C522.988 393.186 522.648 393.138 522.31 393.16" fill="#B1B5BA"/>
<path d="M524 405.47H485C484.899 405.458 484.797 405.467 484.7 405.498C484.603 405.528 484.513 405.579 484.437 405.647C484.361 405.714 484.3 405.797 484.259 405.89C484.217 405.983 484.195 406.083 484.195 406.185C484.195 406.287 484.217 406.387 484.259 406.48C484.3 406.573 484.361 406.656 484.437 406.723C484.513 406.791 484.603 406.841 484.7 406.872C484.797 406.902 484.899 406.912 485 406.9H524C524.101 406.912 524.203 406.902 524.3 406.872C524.397 406.841 524.487 406.791 524.563 406.723C524.639 406.656 524.7 406.573 524.742 406.48C524.783 406.387 524.805 406.287 524.805 406.185C524.805 406.083 524.783 405.983 524.742 405.89C524.7 405.797 524.639 405.714 524.563 405.647C524.487 405.579 524.397 405.528 524.3 405.498C524.203 405.467 524.101 405.458 524 405.47" fill="#B1B5BA"/>
<path d="M524 414.33H485C484.899 414.318 484.797 414.328 484.7 414.358C484.603 414.389 484.513 414.439 484.437 414.507C484.361 414.575 484.3 414.657 484.259 414.75C484.217 414.843 484.195 414.944 484.195 415.045C484.195 415.147 484.217 415.247 484.259 415.34C484.3 415.433 484.361 415.516 484.437 415.583C484.513 415.651 484.603 415.702 484.7 415.732C484.797 415.763 484.899 415.772 485 415.76H524C524.101 415.772 524.203 415.763 524.3 415.732C524.397 415.702 524.487 415.651 524.563 415.583C524.639 415.516 524.7 415.433 524.742 415.34C524.783 415.247 524.805 415.147 524.805 415.045C524.805 414.944 524.783 414.843 524.742 414.75C524.7 414.657 524.639 414.575 524.563 414.507C524.487 414.439 524.397 414.389 524.3 414.358C524.203 414.328 524.101 414.318 524 414.33Z" fill="#B1B5BA"/>
<path d="M524 423.19H485C484.899 423.178 484.797 423.188 484.7 423.218C484.603 423.249 484.513 423.299 484.437 423.367C484.361 423.434 484.3 423.517 484.259 423.61C484.217 423.703 484.195 423.803 484.195 423.905C484.195 424.007 484.217 424.107 484.259 424.2C484.3 424.293 484.361 424.376 484.437 424.443C484.513 424.511 484.603 424.562 484.7 424.592C484.797 424.622 484.899 424.632 485 424.62H524C524.101 424.632 524.203 424.622 524.3 424.592C524.397 424.562 524.487 424.511 524.563 424.443C524.639 424.376 524.7 424.293 524.742 424.2C524.783 424.107 524.805 424.007 524.805 423.905C524.805 423.803 524.783 423.703 524.742 423.61C524.7 423.517 524.639 423.434 524.563 423.367C524.487 423.299 524.397 423.249 524.3 423.218C524.203 423.188 524.101 423.178 524 423.19" fill="#B1B5BA"/>
<path opacity="0.1" d="M668.64 386.59H605.66V470.49H668.64V386.59Z" fill="black"/>
<path d="M661.73 378.82H598.75V462.72H661.73V378.82Z" fill="white"/>
<path opacity="0.3" d="M633 387.36C632.998 388.105 632.701 388.818 632.174 389.344C631.648 389.871 630.935 390.168 630.19 390.17C629.463 390.144 628.775 389.836 628.271 389.312C627.767 388.787 627.487 388.087 627.49 387.36C627.488 387.005 627.557 386.654 627.693 386.326C627.829 385.998 628.028 385.7 628.28 385.45C628.531 385.199 628.829 385.001 629.157 384.865C629.484 384.73 629.836 384.66 630.19 384.66C630.916 384.662 631.613 384.944 632.137 385.447C632.66 385.95 632.969 386.635 633 387.36" fill="black"/>
<path d="M646.92 400.75H607.92C607.819 400.738 607.717 400.748 607.62 400.778C607.522 400.809 607.433 400.859 607.357 400.927C607.281 400.994 607.22 401.077 607.178 401.17C607.137 401.263 607.115 401.363 607.115 401.465C607.115 401.567 607.137 401.667 607.178 401.76C607.22 401.853 607.281 401.936 607.357 402.003C607.433 402.071 607.522 402.122 607.62 402.152C607.717 402.183 607.819 402.192 607.92 402.18H646.92C647.021 402.192 647.123 402.183 647.22 402.152C647.317 402.122 647.407 402.071 647.483 402.003C647.559 401.936 647.62 401.853 647.661 401.76C647.703 401.667 647.725 401.567 647.725 401.465C647.725 401.363 647.703 401.263 647.661 401.17C647.62 401.077 647.559 400.994 647.483 400.927C647.407 400.859 647.317 400.809 647.22 400.778C647.123 400.748 647.021 400.738 646.92 400.75Z" fill="#B1B5BA"/>
<path d="M646.92 409.61H607.92C607.819 409.598 607.717 409.608 607.62 409.638C607.522 409.669 607.433 409.719 607.357 409.787C607.281 409.854 607.22 409.937 607.178 410.03C607.137 410.123 607.115 410.223 607.115 410.325C607.115 410.427 607.137 410.527 607.178 410.62C607.22 410.713 607.281 410.796 607.357 410.863C607.433 410.931 607.522 410.981 607.62 411.012C607.717 411.042 607.819 411.052 607.92 411.04H646.92C647.021 411.052 647.123 411.042 647.22 411.012C647.317 410.981 647.407 410.931 647.483 410.863C647.559 410.796 647.62 410.713 647.661 410.62C647.703 410.527 647.725 410.427 647.725 410.325C647.725 410.223 647.703 410.123 647.661 410.03C647.62 409.937 647.559 409.854 647.483 409.787C647.407 409.719 647.317 409.669 647.22 409.638C647.123 409.608 647.021 409.598 646.92 409.61" fill="#B1B5BA"/>
<path d="M646.92 427.78H607.92C607.819 427.768 607.717 427.778 607.62 427.808C607.522 427.838 607.433 427.889 607.357 427.957C607.281 428.024 607.22 428.107 607.178 428.2C607.137 428.293 607.115 428.393 607.115 428.495C607.115 428.597 607.137 428.697 607.178 428.79C607.22 428.883 607.281 428.966 607.357 429.033C607.433 429.101 607.522 429.151 607.62 429.182C607.717 429.212 607.819 429.222 607.92 429.21H646.92C647.021 429.222 647.123 429.212 647.22 429.182C647.317 429.151 647.407 429.101 647.483 429.033C647.559 428.966 647.62 428.883 647.661 428.79C647.703 428.697 647.725 428.597 647.725 428.495C647.725 428.393 647.703 428.293 647.661 428.2C647.62 428.107 647.559 428.024 647.483 427.957C647.407 427.889 647.317 427.838 647.22 427.808C647.123 427.778 647.021 427.768 646.92 427.78" fill="#B1B5BA"/>
<path d="M647.79 446.82H608.79C608.602 446.82 608.421 446.895 608.288 447.028C608.155 447.161 608.08 447.342 608.08 447.53C608.08 447.718 608.155 447.899 608.288 448.032C608.421 448.165 608.602 448.24 608.79 448.24H647.79C647.978 448.24 648.159 448.165 648.292 448.032C648.425 447.899 648.5 447.718 648.5 447.53C648.5 447.342 648.425 447.161 648.292 447.028C648.159 446.895 647.978 446.82 647.79 446.82" fill="#B1B5BA"/>
<path d="M641.52 418.47H607.93C607.741 418.47 607.561 418.545 607.428 418.678C607.295 418.811 607.22 418.992 607.22 419.18C607.22 419.369 607.295 419.549 607.428 419.682C607.561 419.815 607.741 419.89 607.93 419.89H641.52C641.708 419.89 641.889 419.815 642.022 419.682C642.155 419.549 642.23 419.369 642.23 419.18C642.23 418.992 642.155 418.811 642.022 418.678C641.889 418.545 641.708 418.47 641.52 418.47" fill="#B1B5BA"/>
<path d="M641.52 436.64H607.93C607.741 436.64 607.561 436.715 607.428 436.848C607.295 436.981 607.22 437.162 607.22 437.35C607.22 437.538 607.295 437.719 607.428 437.852C607.561 437.985 607.741 438.06 607.93 438.06H641.52C641.708 438.06 641.889 437.985 642.022 437.852C642.155 437.719 642.23 437.538 642.23 437.35C642.23 437.162 642.155 436.981 642.022 436.848C641.889 436.715 641.708 436.64 641.52 436.64" fill="#B1B5BA"/>
<path opacity="0.2" d="M1095.84 474.49C1106.06 474.49 1114.34 466.208 1114.34 455.99C1114.34 445.773 1106.06 437.49 1095.84 437.49C1085.62 437.49 1077.34 445.773 1077.34 455.99C1077.34 466.208 1085.62 474.49 1095.84 474.49Z" fill="black"/>
<path fill-rule="evenodd" clip-rule="evenodd" d="M1116.88 421C1108.55 417.65 1107.51 405.62 1107.51 405.62H1086.51C1086.51 405.62 1085.51 417.62 1077.14 421C1073.09 422.63 1063.98 424.58 1055.34 428.15C1049.63 430.511 1044.75 434.514 1041.31 439.651C1037.87 444.788 1036.04 450.83 1036.04 457.01V457.13H1158V457C1158 450.82 1156.17 444.778 1152.73 439.641C1149.29 434.504 1144.41 430.501 1138.7 428.14C1130.06 424.57 1120.95 422.62 1116.9 420.99" fill="#868A91"/>
<path d="M1105.27 402.76H1088.75V405.62H1105.27V402.76Z" fill="#61656D"/>
<path d="M1102.66 397H1091.37V402.77H1102.66V397Z" fill="#61656D"/>
<path d="M1105.27 402.76H1088.75V405.62H1105.27V402.76Z" fill="#61656D"/>
<path d="M1102.66 397H1091.37V402.77H1102.66V397Z" fill="#61656D"/>
<path fill-rule="evenodd" clip-rule="evenodd" d="M1098.02 397H1096.01V168.51L1098.02 168.67V397Z" fill="#61656D"/>
<path opacity="0.2" fill-rule="evenodd" clip-rule="evenodd" d="M1158 457C1158 450.82 1156.17 444.778 1152.73 439.641C1149.29 434.503 1144.41 430.501 1138.7 428.14C1130.06 424.57 1120.95 422.62 1116.9 420.99C1108.57 417.64 1107.53 405.61 1107.53 405.61H1103L1102.63 405.68C1102.63 405.68 1101.25 420.44 1114.26 426.63C1119.93 429.33 1131.04 434.29 1135 439.17C1138.62 443.64 1139.07 449.53 1139.07 457.12H1158V457Z" fill="black"/>
<path d="M1302.19 703H878.64C870.594 703 864.07 709.523 864.07 717.57V1000.63C864.07 1008.68 870.594 1015.2 878.64 1015.2H1302.19C1310.24 1015.2 1316.76 1008.68 1316.76 1000.63V717.57C1316.76 709.523 1310.24 703 1302.19 703Z" fill="#3F4249"/>
<path d="M845.77 992.11H1336.22V1001.63C1336.22 1006.35 1334.34 1010.88 1331.01 1014.22C1327.67 1017.55 1323.14 1019.43 1318.42 1019.43H863.57C858.849 1019.43 854.321 1017.55 850.983 1014.22C847.645 1010.88 845.77 1006.35 845.77 1001.63V992.11V992.11Z" fill="#3F4249"/>
<path d="M1303.98 715.4H876.86V979.05H1303.98V715.4Z" fill="white"/>
<g opacity="0.3">
<path opacity="0.3" d="M1316.76 993.23C1316.76 993.38 1215.41 993.51 1090.43 993.51C965.45 993.51 864.07 993.38 864.07 993.23C864.07 993.08 965.4 993 1090.43 993C1215.46 993 1316.76 993.08 1316.76 993.23Z" fill="black"/>
</g>
<path opacity="0.2" d="M1042.46 994H1139.54L1134.39 1000.96H1047.82L1042.46 994Z" fill="white"/>
<path d="M1304 715.33H876.58V725.4H1304V715.33Z" fill="#868A91"/>
<path d="M886.38 720.37C886.398 720.769 886.296 721.164 886.087 721.505C885.879 721.845 885.573 722.116 885.21 722.281C884.846 722.446 884.441 722.499 884.048 722.432C883.654 722.365 883.289 722.182 883.001 721.907C882.712 721.631 882.512 721.275 882.427 720.885C882.343 720.494 882.377 720.088 882.525 719.717C882.673 719.346 882.929 719.029 883.26 718.805C883.59 718.581 883.98 718.461 884.38 718.46C884.637 718.451 884.894 718.493 885.135 718.585C885.376 718.676 885.596 718.815 885.783 718.993C885.969 719.171 886.118 719.385 886.221 719.621C886.323 719.858 886.377 720.112 886.38 720.37V720.37Z" class="change-color-in-svg" fill="#4D61FC" style="fill: rgb(255, 95, 109);"/>
<path d="M894.43 720.37C894.448 720.769 894.346 721.164 894.137 721.505C893.929 721.845 893.623 722.116 893.259 722.281C892.896 722.446 892.491 722.499 892.098 722.432C891.704 722.365 891.339 722.182 891.05 721.907C890.762 721.631 890.562 721.275 890.477 720.885C890.392 720.494 890.426 720.088 890.575 719.717C890.723 719.346 890.979 719.029 891.31 718.805C891.64 718.581 892.03 718.461 892.43 718.46C892.687 718.451 892.944 718.493 893.185 718.585C893.426 718.676 893.646 718.815 893.833 718.993C894.019 719.171 894.168 719.385 894.27 719.621C894.373 719.858 894.427 720.112 894.43 720.37V720.37Z" fill="white"/>
<path opacity="0.3" d="M902.48 720.37C902.498 720.769 902.397 721.164 902.188 721.504C901.979 721.845 901.674 722.115 901.31 722.281C900.947 722.446 900.542 722.498 900.148 722.432C899.755 722.365 899.39 722.182 899.101 721.906C898.812 721.63 898.613 721.275 898.528 720.884C898.443 720.494 898.477 720.087 898.626 719.717C898.774 719.346 899.03 719.028 899.361 718.804C899.691 718.58 900.081 718.46 900.48 718.46C900.738 718.452 900.994 718.495 901.234 718.587C901.475 718.679 901.694 718.818 901.88 718.996C902.067 719.174 902.216 719.387 902.319 719.623C902.422 719.859 902.477 720.113 902.48 720.37V720.37Z" fill="black"/>
<path d="M1303.85 725.4H1296.51V979H1303.85V725.4Z" fill="#DADDDF"/>
<path d="M1300.17 813.32C1299.92 813.32 1299.67 813.271 1299.44 813.175C1299.21 813.078 1299 812.938 1298.82 812.76C1298.65 812.583 1298.51 812.372 1298.41 812.14C1298.32 811.909 1298.27 811.66 1298.27 811.41V728.8C1298.27 728.55 1298.32 728.302 1298.41 728.07C1298.51 727.838 1298.65 727.628 1298.82 727.45C1299 727.273 1299.21 727.132 1299.44 727.036C1299.67 726.94 1299.92 726.89 1300.17 726.89V726.89C1300.42 726.89 1300.67 726.94 1300.9 727.036C1301.13 727.132 1301.34 727.273 1301.51 727.451C1301.69 727.628 1301.83 727.839 1301.92 728.071C1302.02 728.302 1302.06 728.55 1302.06 728.8V811.41C1302.06 811.66 1302.02 811.908 1301.92 812.14C1301.83 812.371 1301.69 812.582 1301.51 812.76C1301.34 812.937 1301.13 813.078 1300.9 813.174C1300.67 813.271 1300.42 813.32 1300.17 813.32V813.32Z" fill="#868A91"/>
<path d="M1207.41 958H973.41V942.89H1207.41V958ZM974.3 957.11H1206.53V943.77H974.3V957.11Z" class="change-color-in-svg" fill="#4D61FC" style="fill: rgb(255, 95, 109);"/>
<path d="M981.84 946.04H976.56V954.88H981.84V946.04Z" class="change-color-in-svg" fill="#4D61FC" style="fill: rgb(255, 95, 109);"/>
<path d="M989.02 946.04H983.74V954.88H989.02V946.04Z" class="change-color-in-svg" fill="#4D61FC" style="fill: rgb(255, 95, 109);"/>
<path d="M996.2 946.04H990.92V954.88H996.2V946.04Z" class="change-color-in-svg" fill="#4D61FC" style="fill: rgb(255, 95, 109);"/>
<path d="M1003.38 946.04H998.1V954.88H1003.38V946.04Z" class="change-color-in-svg" fill="#4D61FC" style="fill: rgb(255, 95, 109);"/>
<path d="M1010.56 946.04H1005.28V954.88H1010.56V946.04Z" class="change-color-in-svg" fill="#4D61FC" style="fill: rgb(255, 95, 109);"/>
<path d="M1017.74 946.04H1012.46V954.88H1017.74V946.04Z" class="change-color-in-svg" fill="#4D61FC" style="fill: rgb(255, 95, 109);"/>
<path d="M1024.92 946.04H1019.64V954.88H1024.92V946.04Z" class="change-color-in-svg" fill="#4D61FC" style="fill: rgb(255, 95, 109);"/>
<path d="M1032.1 946.04H1026.82V954.88H1032.1V946.04Z" class="change-color-in-svg" fill="#4D61FC" style="fill: rgb(255, 95, 109);"/>
<path d="M1039.28 946.04H1034V954.88H1039.28V946.04Z" class="change-color-in-svg" fill="#4D61FC" style="fill: rgb(255, 95, 109);"/>
<path d="M1046.46 946.04H1041.18V954.88H1046.46V946.04Z" class="change-color-in-svg" fill="#4D61FC" style="fill: rgb(255, 95, 109);"/>
<path d="M1053.64 946.04H1048.36V954.88H1053.64V946.04Z" class="change-color-in-svg" fill="#4D61FC" style="fill: rgb(255, 95, 109);"/>
<path d="M1060.82 946.04H1055.54V954.88H1060.82V946.04Z" class="change-color-in-svg" fill="#4D61FC" style="fill: rgb(255, 95, 109);"/>
<path d="M1068 946.04H1062.72V954.88H1068V946.04Z" class="change-color-in-svg" fill="#4D61FC" style="fill: rgb(255, 95, 109);"/>
<path d="M1075.18 946.04H1069.9V954.88H1075.18V946.04Z" class="change-color-in-svg" fill="#4D61FC" style="fill: rgb(255, 95, 109);"/>
<path d="M1082.36 946.04H1077.08V954.88H1082.36V946.04Z" class="change-color-in-svg" fill="#4D61FC" style="fill: rgb(255, 95, 109);"/>
<path d="M1089.54 946.04H1084.26V954.88H1089.54V946.04Z" class="change-color-in-svg" fill="#4D61FC" style="fill: rgb(255, 95, 109);"/>
<path d="M1096.72 946.04H1091.44V954.88H1096.72V946.04Z" class="change-color-in-svg" fill="#4D61FC" style="fill: rgb(255, 95, 109);"/>
<path d="M1103.9 946.04H1098.62V954.88H1103.9V946.04Z" class="change-color-in-svg" fill="#4D61FC" style="fill: rgb(255, 95, 109);"/>
<path d="M1111.08 946.04H1105.8V954.88H1111.08V946.04Z" class="change-color-in-svg" fill="#4D61FC" style="fill: rgb(255, 95, 109);"/>
<path d="M1060.28 841.34L1058.28 833.88C1058.25 833.745 1058.17 833.624 1058.06 833.539C1057.95 833.454 1057.81 833.408 1057.67 833.41H1033.27C1033.1 833.41 1032.94 833.478 1032.82 833.598C1032.7 833.718 1032.63 833.88 1032.63 834.05V922.26C1032.63 922.43 1032.7 922.593 1032.82 922.713C1032.94 922.833 1033.1 922.9 1033.27 922.9H1157.4C1157.57 922.9 1157.73 922.833 1157.85 922.713C1157.97 922.593 1158.04 922.43 1158.04 922.26V842.44C1158.04 842.272 1157.97 842.112 1157.85 841.994C1157.73 841.876 1157.57 841.81 1157.4 841.81H1060.9C1060.76 841.809 1060.62 841.763 1060.51 841.678C1060.4 841.594 1060.32 841.475 1060.28 841.34V841.34Z" class="change-color-in-svg" fill="#4D61FC" style="fill: rgb(255, 95, 109);"/>
<path opacity="0.2" d="M1060.28 841.34L1058.28 833.88C1058.25 833.745 1058.17 833.624 1058.06 833.539C1057.95 833.454 1057.81 833.408 1057.67 833.41H1033.27C1033.1 833.41 1032.94 833.478 1032.82 833.598C1032.7 833.718 1032.63 833.88 1032.63 834.05V922.26C1032.63 922.43 1032.7 922.593 1032.82 922.713C1032.94 922.833 1033.1 922.9 1033.27 922.9H1157.4C1157.57 922.9 1157.73 922.833 1157.85 922.713C1157.97 922.593 1158.04 922.43 1158.04 922.26V842.44C1158.04 842.272 1157.97 842.112 1157.85 841.994C1157.73 841.876 1157.57 841.81 1157.4 841.81H1060.9C1060.76 841.809 1060.62 841.763 1060.51 841.678C1060.4 841.594 1060.32 841.475 1060.28 841.34V841.34Z" fill="black"/>
<path d="M1033.04 865.15L1110.86 889.61L1142.27 789.72L1084.48 771.55L1058.46 784.29L1033.04 865.15Z" fill="#DADDDF"/>
<path opacity="0.2" d="M1084.48 771.55L1058.46 784.29L1078.5 790.59L1084.48 771.55Z" fill="black"/>
<g opacity="0.2">
<path opacity="0.2" d="M1129.43 804.07L1086.16 790.47L1085.36 793.036L1128.62 806.636L1129.43 804.07Z" fill="black"/>
<path opacity="0.2" d="M1127.39 810.54L1084.13 796.941L1083.32 799.507L1126.58 813.106L1127.39 810.54Z" fill="black"/>
<path opacity="0.2" d="M1120.78 813.942L1077.69 800.337L1076.89 802.892L1119.97 816.497L1120.78 813.942Z" fill="black"/>
<path opacity="0.2" d="M1123.32 823.496L1059.93 803.569L1059.12 806.136L1122.51 826.062L1123.32 823.496Z" fill="black"/>
<path opacity="0.2" d="M1121.28 829.967L1057.89 810.04L1057.08 812.606L1120.48 832.533L1121.28 829.967Z" fill="black"/>
<path opacity="0.2" d="M1119.25 836.439L1055.86 816.513L1055.05 819.079L1118.45 839.005L1119.25 836.439Z" fill="black"/>
<path opacity="0.2" d="M1117.22 842.91L1053.82 822.983L1053.02 825.55L1116.41 845.476L1117.22 842.91Z" fill="black"/>
<path opacity="0.2" d="M1115.19 849.393L1051.79 829.466L1050.99 832.033L1114.38 851.959L1115.19 849.393Z" fill="black"/>
<path opacity="0.2" d="M1113.14 855.864L1049.75 835.937L1048.94 838.503L1112.33 858.43L1113.14 855.864Z" fill="black"/>
<path opacity="0.2" d="M1111.11 862.346L1047.72 842.42L1046.91 844.986L1110.3 864.913L1111.11 862.346Z" fill="black"/>
<path opacity="0.2" d="M1109.07 868.817L1045.68 848.891L1044.88 851.457L1108.27 871.383L1109.07 868.817Z" fill="black"/>
<path opacity="0.2" d="M1107.04 875.3L1043.65 855.374L1042.85 857.94L1106.24 877.866L1107.04 875.3Z" fill="black"/>
</g>
<path d="M1032.88 922.9H1157C1157.09 922.899 1157.18 922.88 1157.26 922.843C1157.34 922.805 1157.41 922.752 1157.47 922.685C1157.53 922.618 1157.58 922.539 1157.6 922.454C1157.63 922.369 1157.64 922.279 1157.63 922.19L1149.15 849.1C1149.13 848.946 1149.06 848.805 1148.94 848.702C1148.82 848.599 1148.67 848.541 1148.52 848.54H1049.88C1049.75 848.538 1049.63 848.499 1049.53 848.428C1049.42 848.357 1049.34 848.257 1049.29 848.14L1046.45 841.23C1046.4 841.112 1046.32 841.01 1046.22 840.939C1046.11 840.867 1045.99 840.829 1045.86 840.83H1023.48C1023.39 840.831 1023.3 840.851 1023.22 840.888C1023.14 840.926 1023.06 840.981 1023 841.049C1022.94 841.117 1022.9 841.196 1022.87 841.283C1022.85 841.369 1022.84 841.46 1022.85 841.55L1032.22 922.34C1032.24 922.499 1032.32 922.645 1032.44 922.749C1032.56 922.852 1032.72 922.906 1032.88 922.9V922.9Z" class="change-color-in-svg" fill="#4D61FC" style="fill: rgb(255, 95, 109);"/>
<path d="M676.32 963L704.26 962.92L705 979C705.089 981.073 705.648 983.098 706.636 984.922C707.624 986.747 709.013 988.322 710.7 989.53L731.19 1004.17L679.83 1002.9L676.32 963Z" fill="#FC9D9D"/>
<path opacity="0.15" d="M694.68 996.43L702.04 999.36L679.65 1001.81L677.19 974.59H704.57L704.73 977.83L688.35 980.21C687.498 980.332 686.725 980.779 686.194 981.457C685.663 982.135 685.414 982.993 685.5 983.85V984.16C685.749 986.853 686.738 989.425 688.358 991.591C689.979 993.757 692.167 995.431 694.68 996.43Z" fill="black"/>
<path d="M591.33 963L618.63 962.92L614.36 1002H591.25L591.33 963Z" fill="#FC9D9D"/>
<path opacity="0.15" d="M591.33 1002.21L591.41 974.51L617.41 974.43L617.01 977.75L600.39 980.29C599.631 980.391 598.931 980.755 598.41 981.317C597.89 981.879 597.582 982.605 597.54 983.37L596.99 995.37L591.33 1002.21Z" fill="black"/>
<path d="M590.83 655H694.34L705.44 974.63H676.9L648.1 714C648.1 713.17 647.77 712.374 647.183 711.787C646.596 711.2 645.8 710.87 644.97 710.87C644.14 710.87 643.344 711.2 642.757 711.787C642.17 712.374 641.84 713.17 641.84 714L619.37 974.59H590.83V655Z" class="change-color-in-svg" fill="#4D61FC" style="fill: rgb(255, 95, 109);"/>
<path opacity="0.2" d="M607.59 655.52L603 967.94L590.72 967.86L591 655.52H607.59Z" fill="black"/>
<path d="M590.78 993.26L590.7 995.56C590.688 997.502 590.35 999.429 589.7 1001.26L586.85 1009.26C586.07 1011.51 585.668 1013.88 585.66 1016.26V1016.66C585.699 1017.45 586.045 1018.18 586.623 1018.72C587.2 1019.25 587.964 1019.53 588.75 1019.51H617.16C617.946 1019.53 618.71 1019.25 619.288 1018.72C619.866 1018.18 620.211 1017.45 620.25 1016.66V1015.66C620.234 1013.59 619.897 1011.54 619.25 1009.57L616.79 1001.42C616.255 999.756 615.988 998.018 616 996.27V993.27C616.007 991.386 615.291 989.572 614 988.2L613.61 987.73C611.002 985.076 607.45 983.561 603.73 983.516C600.009 983.471 596.421 984.899 593.75 987.49L593.03 988.2C591.702 989.565 590.904 991.359 590.78 993.26Z" fill="#21252B"/>
<path d="M589 968H621.52L620.89 974.57H589V968Z" class="change-color-in-svg" fill="#4D61FC" style="fill: rgb(255, 95, 109);"/>
<path opacity="0.15" d="M589 968H602.61L602.29 974.57H589V968Z" fill="black"/>
<path opacity="0.6" d="M585.63 1014.47H620.14C620.206 1014.86 620.233 1015.26 620.22 1015.66V1016.66C620.181 1017.45 619.835 1018.18 619.258 1018.72C618.68 1019.25 617.916 1019.53 617.13 1019.51H588.72C587.934 1019.53 587.17 1019.25 586.592 1018.72C586.014 1018.18 585.669 1017.45 585.63 1016.66V1014.44V1014.47Z" fill="black"/>
<path d="M679.25 991.6L690.17 995C690.958 995.233 691.791 995.264 692.594 995.089C693.396 994.914 694.141 994.539 694.76 994L703.39 986.64C704.33 985.831 705.522 985.372 706.762 985.343C708.002 985.314 709.213 985.716 710.19 986.48L729.66 1001.59L745.01 1006.66C747.217 1007.4 749.137 1008.81 750.5 1010.7C751.863 1012.59 752.601 1014.85 752.61 1017.18C752.608 1017.83 752.349 1018.45 751.89 1018.91C751.432 1019.37 750.81 1019.63 750.16 1019.64H682.1C681.33 1019.64 680.568 1019.49 679.856 1019.2C679.145 1018.9 678.498 1018.47 677.954 1017.93C677.409 1017.38 676.978 1016.74 676.684 1016.02C676.39 1015.31 676.239 1014.55 676.24 1013.78V993.78C676.254 993.422 676.348 993.072 676.517 992.756C676.686 992.44 676.924 992.167 677.214 991.957C677.504 991.747 677.838 991.606 678.191 991.544C678.544 991.482 678.906 991.501 679.25 991.6V991.6Z" fill="#21252B"/>
<path opacity="0.6" d="M676.32 1014.79H752.32C752.55 1015.59 752.657 1016.41 752.64 1017.24C752.638 1017.89 752.379 1018.51 751.92 1018.97C751.462 1019.43 750.84 1019.69 750.19 1019.7H682.1C680.712 1019.7 679.371 1019.2 678.313 1018.3C677.255 1017.4 676.549 1016.16 676.32 1014.79V1014.79Z" fill="black"/>
<path d="M710.27 994.37L714.39 989.94C714.502 989.823 714.565 989.667 714.565 989.505C714.565 989.343 714.502 989.187 714.39 989.07C714.274 988.956 714.118 988.892 713.955 988.892C713.793 988.892 713.636 988.956 713.52 989.07L709.4 993.5C709.325 993.583 709.275 993.686 709.255 993.796C709.236 993.907 709.247 994.02 709.289 994.124C709.331 994.229 709.401 994.319 709.491 994.385C709.581 994.452 709.689 994.491 709.8 994.5C709.965 994.491 710.125 994.447 710.27 994.37Z" fill="white"/>
<path d="M699.93 532.64C700.46 520.14 691.93 508.74 683.14 505.9L661.73 497.69C661.73 497.63 655.87 496.06 655.87 496L658.02 496.64L625.02 495.53L623.28 496.02L583.19 505.52C572.67 507.89 565.19 517.79 565.41 529.02L566.02 558.02L591.13 593.15L589.41 658.94C589.394 659.515 589.492 660.088 589.698 660.626C589.904 661.164 590.215 661.655 590.612 662.072C591.008 662.49 591.484 662.824 592.01 663.057C592.537 663.29 593.104 663.417 593.68 663.43H691.44C692.547 663.408 693.604 662.966 694.397 662.194C695.19 661.421 695.659 660.376 695.71 659.27L699.93 532.64Z" fill="#21252B"/>
<path d="M713.52 996.9L717.63 992.47C717.744 992.354 717.808 992.198 717.808 992.035C717.808 991.872 717.744 991.716 717.63 991.6C717.513 991.488 717.357 991.426 717.195 991.426C717.033 991.426 716.877 991.488 716.76 991.6L712.65 996C712.536 996.116 712.472 996.272 712.472 996.435C712.472 996.598 712.536 996.754 712.65 996.87C712.754 996.972 712.894 997.03 713.04 997.03C713.207 997.023 713.371 996.978 713.52 996.9V996.9Z" fill="white"/>
<path d="M716.76 999.44L720.88 995.01C720.992 994.893 721.054 994.737 721.054 994.575C721.054 994.413 720.992 994.257 720.88 994.14C720.764 994.026 720.607 993.962 720.445 993.962C720.282 993.962 720.126 994.026 720.01 994.14L715.89 998.57C715.815 998.653 715.764 998.756 715.745 998.866C715.725 998.977 715.737 999.091 715.778 999.195C715.82 999.299 715.89 999.389 715.98 999.456C716.071 999.522 716.178 999.562 716.29 999.57C716.457 999.587 716.625 999.541 716.76 999.44V999.44Z" fill="white"/>
<path d="M609.53 994.53C609.602 994.361 609.61 994.171 609.553 993.997C609.496 993.822 609.378 993.674 609.22 993.58C607.384 992.679 605.366 992.21 603.32 992.21C601.275 992.21 599.257 992.679 597.42 993.58C597.252 993.665 597.124 993.813 597.065 993.992C597.006 994.171 597.02 994.366 597.105 994.535C597.19 994.703 597.339 994.831 597.518 994.89C597.697 994.949 597.892 994.935 598.06 994.85C599.691 994.075 601.475 993.672 603.28 993.672C605.086 993.672 606.869 994.075 608.5 994.85C608.594 994.913 608.708 994.942 608.82 994.93C608.963 994.931 609.104 994.895 609.229 994.824C609.353 994.754 609.457 994.653 609.53 994.53V994.53Z" fill="white"/>
<path d="M609.53 998.17C609.602 998.001 609.61 997.812 609.553 997.637C609.496 997.462 609.378 997.314 609.22 997.22C607.384 996.319 605.366 995.85 603.32 995.85C601.275 995.85 599.257 996.319 597.42 997.22C597.252 997.305 597.124 997.453 597.065 997.632C597.006 997.811 597.02 998.007 597.105 998.175C597.19 998.343 597.339 998.471 597.518 998.53C597.697 998.589 597.892 998.575 598.06 998.49C599.69 997.711 601.474 997.307 603.28 997.307C605.087 997.307 606.87 997.711 608.5 998.49C608.594 998.554 608.708 998.582 608.82 998.57C608.963 998.571 609.104 998.535 609.229 998.464C609.353 998.394 609.457 998.293 609.53 998.17Z" fill="white"/>
<path d="M609.53 1001.73C609.614 1001.55 609.629 1001.35 609.571 1001.17C609.514 1000.98 609.389 1000.83 609.22 1000.73C607.383 999.831 605.365 999.363 603.32 999.363C601.275 999.363 599.257 999.831 597.42 1000.73C597.337 1000.77 597.263 1000.83 597.202 1000.9C597.141 1000.97 597.094 1001.05 597.065 1001.14C597.036 1001.23 597.024 1001.32 597.031 1001.42C597.038 1001.51 597.063 1001.6 597.105 1001.68C597.147 1001.77 597.205 1001.84 597.276 1001.9C597.347 1001.96 597.429 1002.01 597.518 1002.04C597.606 1002.07 597.7 1002.08 597.793 1002.07C597.886 1002.07 597.977 1002.04 598.06 1002C599.691 1001.22 601.475 1000.82 603.28 1000.82C605.086 1000.82 606.869 1001.22 608.5 1002C608.594 1002.06 608.708 1002.09 608.82 1002.08C608.959 1002.09 609.096 1002.06 609.22 1002C609.345 1001.93 609.451 1001.84 609.53 1001.73V1001.73Z" fill="white"/>
<path d="M690.87 510.75C690.87 510.75 703.23 517.95 705.16 541.63L715.22 614.41L685.37 613.16L690.87 510.75Z" fill="#21252B"/>
<path opacity="0.2" d="M676.75 973.24L648.1 714.08C648.055 713.284 647.712 712.533 647.14 711.977C646.568 711.422 645.807 711.101 645.01 711.08H650.92C658.45 711.08 664.85 717.01 665.76 724.93L693.92 970.93L676.75 973.24Z" fill="black"/>
<path d="M674 968H706.05L706.52 974.57H674.66L674 968Z" class="change-color-in-svg" fill="#4D61FC" style="fill: rgb(255, 95, 109);"/>
<path opacity="0.15" d="M589 968H621.52L620.89 974.57H589V968Z" fill="black"/>
<path opacity="0.3" d="M612.08 606.31L598.46 604.5L602 542.59C602 542.45 602.22 542.34 602.53 542.26C602.944 542.164 603.374 542.162 603.788 542.255C604.202 542.348 604.59 542.532 604.924 542.795C605.257 543.059 605.527 543.393 605.713 543.775C605.899 544.157 605.997 544.575 606 545L606.92 600.59L663.83 609.3C664.11 609.345 664.364 609.489 664.548 609.705C664.731 609.922 664.831 610.196 664.83 610.48C664.83 610.649 664.794 610.817 664.724 610.971C664.654 611.126 664.551 611.263 664.423 611.374C664.295 611.485 664.144 611.567 663.981 611.615C663.819 611.662 663.648 611.674 663.48 611.65L612.08 606.31Z" fill="black"/>
<path opacity="0.15" d="M674 968H706.05L706.52 974.57H674.66L674 968Z" fill="black"/>
<path opacity="0.3" d="M695.55 515.44L685.37 613.16L705.16 613.99L701.09 559.07L700.8 547.54C700.784 546.915 700.622 546.304 700.327 545.753C700.031 545.203 699.611 544.729 699.1 544.37L695.55 515.44Z" fill="black"/>
<path opacity="0.15" d="M674 968H692.91L693.62 974.57H674.62L674 968Z" fill="black"/>
<path opacity="0.3" d="M607.84 631.55L607.48 663.44H593.7C593.125 663.426 592.558 663.298 592.032 663.065C591.506 662.831 591.031 662.497 590.635 662.08C590.238 661.663 589.928 661.172 589.721 660.635C589.514 660.098 589.415 659.525 589.43 658.95L590.07 634.33L607.84 631.55Z" fill="black"/>
<g opacity="0.6">
<path opacity="0.6" d="M608.41 555.58C609.493 555.58 610.37 554.703 610.37 553.62C610.37 552.538 609.493 551.66 608.41 551.66C607.328 551.66 606.45 552.538 606.45 553.62C606.45 554.703 607.328 555.58 608.41 555.58Z" fill="white"/>
<path opacity="0.6" d="M624.54 519.54C625.623 519.54 626.5 518.663 626.5 517.58C626.5 516.498 625.623 515.62 624.54 515.62C623.458 515.62 622.58 516.498 622.58 517.58C622.58 518.663 623.458 519.54 624.54 519.54Z" fill="white"/>
<path opacity="0.6" d="M597.46 511.27C598.543 511.27 599.42 510.393 599.42 509.31C599.42 508.228 598.543 507.35 597.46 507.35C596.378 507.35 595.5 508.228 595.5 509.31C595.5 510.393 596.378 511.27 597.46 511.27Z" fill="white"/>
<path opacity="0.6" d="M692.74 587.09C693.823 587.09 694.7 586.212 694.7 585.13C694.7 584.047 693.823 583.17 692.74 583.17C691.658 583.17 690.78 584.047 690.78 585.13C690.78 586.212 691.658 587.09 692.74 587.09Z" fill="white"/>
<path opacity="0.6" d="M633.47 640.85C634.552 640.85 635.43 639.973 635.43 638.89C635.43 637.808 634.552 636.93 633.47 636.93C632.387 636.93 631.51 637.808 631.51 638.89C631.51 639.973 632.387 640.85 633.47 640.85Z" fill="white"/>
<path opacity="0.6" d="M604.26 656.58C605.342 656.58 606.22 655.703 606.22 654.62C606.22 653.538 605.342 652.66 604.26 652.66C603.177 652.66 602.3 653.538 602.3 654.62C602.3 655.703 603.177 656.58 604.26 656.58Z" fill="white"/>
<path opacity="0.6" d="M679.93 638.73C681.012 638.73 681.89 637.853 681.89 636.77C681.89 635.688 681.012 634.81 679.93 634.81C678.847 634.81 677.97 635.688 677.97 636.77C677.97 637.853 678.847 638.73 679.93 638.73Z" fill="white"/>
<path opacity="0.6" d="M695.08 533.85C696.163 533.85 697.04 532.973 697.04 531.89C697.04 530.808 696.163 529.93 695.08 529.93C693.998 529.93 693.12 530.808 693.12 531.89C693.12 532.973 693.998 533.85 695.08 533.85Z" fill="white"/>
<path opacity="0.6" d="M664.66 536.49C665.743 536.49 666.62 535.613 666.62 534.53C666.62 533.448 665.743 532.57 664.66 532.57C663.578 532.57 662.7 533.448 662.7 534.53C662.7 535.613 663.578 536.49 664.66 536.49Z" fill="white"/>
<path opacity="0.6" d="M638.43 581.83C639.512 581.83 640.39 580.953 640.39 579.87C640.39 578.788 639.512 577.91 638.43 577.91C637.347 577.91 636.47 578.788 636.47 579.87C636.47 580.953 637.347 581.83 638.43 581.83Z" fill="white"/>
<path opacity="0.6" d="M656.95 601.88C658.033 601.88 658.91 601.002 658.91 599.92C658.91 598.837 658.033 597.96 656.95 597.96C655.868 597.96 654.99 598.837 654.99 599.92C654.99 601.002 655.868 601.88 656.95 601.88Z" fill="white"/>
<path opacity="0.6" d="M614.71 595.99C615.793 595.99 616.67 595.113 616.67 594.03C616.67 592.948 615.793 592.07 614.71 592.07C613.628 592.07 612.75 592.948 612.75 594.03C612.75 595.113 613.628 595.99 614.71 595.99Z" fill="white"/>
<path opacity="0.6" d="M655.51 656.54C656.592 656.54 657.47 655.663 657.47 654.58C657.47 653.498 656.592 652.62 655.51 652.62C654.427 652.62 653.55 653.498 653.55 654.58C653.55 655.663 654.427 656.54 655.51 656.54Z" fill="white"/>
<path opacity="0.6" d="M641.95 550.82C643.033 550.82 643.91 549.942 643.91 548.86C643.91 547.777 643.033 546.9 641.95 546.9C640.868 546.9 639.99 547.777 639.99 548.86C639.99 549.942 640.868 550.82 641.95 550.82Z" fill="white"/>
</g>
<path d="M675.77 571.15L674 563.7C673.975 563.571 673.907 563.454 673.807 563.369C673.707 563.283 673.582 563.234 673.45 563.23H651.64C651.561 563.234 651.484 563.253 651.413 563.287C651.341 563.321 651.277 563.368 651.224 563.427C651.171 563.485 651.131 563.554 651.104 563.628C651.078 563.702 651.066 563.781 651.07 563.86V652.08C651.062 652.24 651.117 652.397 651.224 652.517C651.331 652.637 651.48 652.71 651.64 652.72H762.43C762.59 652.71 762.74 652.637 762.846 652.517C762.953 652.397 763.008 652.24 763 652.08V572.26C763.004 572.181 762.993 572.102 762.966 572.028C762.94 571.954 762.899 571.885 762.846 571.827C762.793 571.768 762.729 571.721 762.658 571.687C762.586 571.653 762.509 571.634 762.43 571.63H676.32C676.187 571.625 676.06 571.575 675.96 571.487C675.86 571.4 675.793 571.281 675.77 571.15Z" class="change-color-in-svg" fill="#4D61FC" style="fill: rgb(255, 95, 109);"/>
<path opacity="0.2" d="M675.77 571.15L674 563.7C673.975 563.571 673.907 563.454 673.807 563.369C673.707 563.283 673.582 563.234 673.45 563.23H651.64C651.561 563.234 651.484 563.253 651.413 563.287C651.341 563.321 651.277 563.368 651.224 563.427C651.171 563.485 651.131 563.554 651.104 563.628C651.078 563.702 651.066 563.781 651.07 563.86V652.08C651.062 652.24 651.117 652.397 651.224 652.517C651.331 652.637 651.48 652.71 651.64 652.72H762.43C762.59 652.71 762.74 652.637 762.846 652.517C762.953 652.397 763.008 652.24 763 652.08V572.26C763.004 572.181 762.993 572.102 762.966 572.028C762.94 571.954 762.899 571.885 762.846 571.827C762.793 571.768 762.729 571.721 762.658 571.687C762.586 571.653 762.509 571.634 762.43 571.63H676.32C676.187 571.625 676.06 571.575 675.96 571.487C675.86 571.4 675.793 571.281 675.77 571.15Z" fill="black"/>
<path d="M652.55 594.97L730.37 619.43L761.78 519.53L704 501.37L677.97 514.11L652.55 594.97Z" fill="#DADDDF"/>
<path opacity="0.2" d="M704 501.37L677.97 514.11L698.01 520.41L704 501.37Z" fill="black"/>
<g opacity="0.2">
<path opacity="0.2" d="M748.927 533.895L705.664 520.295L704.857 522.862L748.12 536.461L748.927 533.895Z" fill="black"/>
<path opacity="0.2" d="M746.9 540.368L703.637 526.769L702.83 529.335L746.093 542.935L746.9 540.368Z" fill="black"/>
<path opacity="0.2" d="M744.861 546.848L701.598 533.249L700.791 535.815L744.054 549.414L744.861 546.848Z" fill="black"/>
<path opacity="0.2" d="M739.791 551.253L676.663 531.318L675.856 533.874L738.984 553.809L739.791 551.253Z" fill="black"/>
<path opacity="0.2" d="M740.792 559.795L677.4 539.868L676.594 542.434L739.986 562.361L740.792 559.795Z" fill="black"/>
<path opacity="0.2" d="M735.739 564.155L672.611 544.22L671.804 546.775L734.932 566.71L735.739 564.155Z" fill="black"/>
<path opacity="0.2" d="M736.727 572.748L673.335 552.821L672.528 555.387L735.92 575.314L736.727 572.748Z" fill="black"/>
<path opacity="0.2" d="M734.688 579.218L671.296 559.292L670.489 561.858L733.881 581.784L734.688 579.218Z" fill="black"/>
<path opacity="0.2" d="M732.651 585.692L669.259 565.765L668.452 568.331L731.844 588.258L732.651 585.692Z" fill="black"/>
<path opacity="0.2" d="M727.626 589.948L664.499 570.013L663.692 572.568L726.819 592.503L727.626 589.948Z" fill="black"/>
<path opacity="0.2" d="M728.584 598.645L665.192 578.719L664.386 581.285L727.778 601.212L728.584 598.645Z" fill="black"/>
<path opacity="0.2" d="M726.545 605.125L663.153 585.199L662.347 587.765L725.739 607.692L726.545 605.125Z" fill="black"/>
</g>
<path d="M651.32 652.72H762.1C762.185 652.714 762.268 652.691 762.343 652.651C762.419 652.611 762.485 652.556 762.538 652.489C762.59 652.422 762.628 652.345 762.65 652.263C762.671 652.18 762.674 652.094 762.66 652.01L755.1 578.92C755.091 578.772 755.028 578.632 754.923 578.527C754.818 578.422 754.678 578.359 754.53 578.35H666.53C666.417 578.351 666.306 578.318 666.212 578.256C666.117 578.193 666.044 578.104 666 578L663.47 571.09C663.433 570.977 663.363 570.878 663.268 570.807C663.173 570.735 663.059 570.694 662.94 570.69H643C642.915 570.696 642.832 570.719 642.757 570.759C642.682 570.799 642.615 570.854 642.563 570.921C642.51 570.988 642.472 571.065 642.451 571.147C642.43 571.23 642.426 571.316 642.44 571.4L650.8 652.2C650.817 652.332 650.877 652.455 650.971 652.549C651.065 652.643 651.188 652.703 651.32 652.72V652.72Z" class="change-color-in-svg" fill="#4D61FC" style="fill: rgb(255, 95, 109);"/>
<path d="M609.4 606.32L669.27 611.81L668.27 629.11C668.27 629.11 616.2 633.65 589.89 630.49L595.45 615.12L609.4 606.32Z" fill="#FC9D9D"/>
<path d="M660.45 627.42L674.66 631.7C678.778 632.608 682.945 633.276 687.14 633.7L699.82 636.4C700.188 636.436 700.554 636.324 700.839 636.09C701.124 635.855 701.304 635.517 701.34 635.15C701.376 634.783 701.264 634.416 701.03 634.131C700.796 633.846 700.458 633.666 700.09 633.63L688.78 629.11L688.56 628.62H705.37C705.761 628.59 706.127 628.417 706.398 628.134C706.669 627.85 706.826 627.477 706.839 627.085C706.851 626.693 706.718 626.31 706.466 626.01C706.213 625.711 705.858 625.515 705.47 625.46L700.93 624.93L707.66 624.79C708.134 624.779 708.587 624.594 708.933 624.269C709.278 623.944 709.491 623.503 709.53 623.03V623.03C709.572 622.527 709.416 622.028 709.094 621.639C708.773 621.251 708.312 621.003 707.81 620.95L689.08 619.17L688.91 618.43L703.65 618.05C704.005 618.038 704.343 617.896 704.601 617.651C704.858 617.406 705.016 617.076 705.046 616.722C705.075 616.368 704.974 616.015 704.761 615.731C704.548 615.447 704.238 615.251 703.89 615.18L696.35 614.3L686.75 613.3L687.65 612.55C696.05 611.28 696.52 609.62 696.88 608.32C696.909 608.206 696.911 608.086 696.884 607.971C696.858 607.856 696.804 607.749 696.728 607.659C696.651 607.569 696.554 607.498 696.445 607.453C696.336 607.408 696.218 607.39 696.1 607.4L680.53 608.73L662.75 612.32L662.34 614.48" fill="#FC9D9D"/>
<g opacity="0.15">
<path opacity="0.15" d="M689.24 624.5C689.223 624.421 689.223 624.339 689.24 624.26C689.25 624.125 689.312 623.999 689.412 623.907C689.512 623.816 689.644 623.767 689.78 623.77L703.6 624.44C703.737 624.45 703.864 624.513 703.956 624.616C704.047 624.719 704.095 624.853 704.09 624.99C704.082 625.126 704.021 625.254 703.92 625.346C703.819 625.437 703.686 625.486 703.55 625.48L689.73 624.8C689.627 624.807 689.525 624.781 689.437 624.728C689.35 624.674 689.281 624.594 689.24 624.5Z" fill="black"/>
</g>
<path d="M601.76 563L599.76 604.24L628 608L611.31 631.36L584.5 631.86C582.223 631.995 579.942 631.663 577.798 630.885C575.654 630.107 573.692 628.899 572.032 627.335C570.372 625.771 569.048 623.885 568.143 621.791C567.239 619.697 566.771 617.441 566.77 615.16V564.08" fill="#FC9D9D"/>
<g opacity="0.15">
<path opacity="0.15" d="M698.88 613.26C698.881 613.176 698.865 613.092 698.834 613.014C698.802 612.935 698.755 612.864 698.695 612.805C698.636 612.745 698.564 612.698 698.486 612.666C698.408 612.634 698.324 612.619 698.24 612.62H693.81C693.645 612.632 693.49 612.704 693.374 612.821C693.258 612.939 693.189 613.095 693.18 613.26C693.18 613.427 693.246 613.588 693.364 613.706C693.482 613.824 693.643 613.89 693.81 613.89H698.24C698.404 613.879 698.559 613.809 698.676 613.694C698.794 613.578 698.866 613.424 698.88 613.26V613.26Z" fill="black"/>
</g>
<g opacity="0.15">
<path opacity="0.15" d="M699.19 618.8C699.193 618.716 699.178 618.633 699.148 618.555C699.117 618.476 699.071 618.405 699.012 618.345C698.953 618.285 698.883 618.238 698.805 618.206C698.727 618.175 698.644 618.159 698.56 618.16H694.05C693.885 618.172 693.73 618.244 693.614 618.361C693.498 618.479 693.429 618.635 693.42 618.8C693.419 618.883 693.434 618.966 693.465 619.043C693.496 619.12 693.543 619.19 693.602 619.249C693.66 619.308 693.73 619.354 693.807 619.385C693.884 619.416 693.967 619.432 694.05 619.43H698.56C698.723 619.419 698.877 619.349 698.993 619.233C699.108 619.117 699.178 618.964 699.19 618.8Z" fill="black"/>
</g>
<path d="M666.38 611.55L664.85 629.39L659.94 629.76L661.64 611.11L666.38 611.55Z" fill="black"/>
<path opacity="0.15" d="M599.72 604.23L594.3 603.8C594.224 603.781 594.156 603.738 594.108 603.676C594.06 603.614 594.033 603.538 594.033 603.46C594.033 603.382 594.06 603.305 594.108 603.244C594.156 603.182 594.224 603.139 594.3 603.12L599.98 601.42L599.72 604.23Z" fill="black"/>
<path d="M663.73 625.19C666.21 625.19 668.22 623.18 668.22 620.7C668.22 618.22 666.21 616.21 663.73 616.21C661.25 616.21 659.24 618.22 659.24 620.7C659.24 623.18 661.25 625.19 663.73 625.19Z" class="change-color-in-svg" fill="#4D61FC" style="fill: rgb(255, 95, 109);"/>
<path d="M663.73 624.07C665.592 624.07 667.1 622.561 667.1 620.7C667.1 618.839 665.592 617.33 663.73 617.33C661.869 617.33 660.36 618.839 660.36 620.7C660.36 622.561 661.869 624.07 663.73 624.07Z" fill="white"/>
<path d="M665.75 618.96L663.73 620.7H662.06" stroke="black" stroke-width="0.56" stroke-miterlimit="10" stroke-linecap="round"/>
<path d="M662.36 472.25C662.189 474.325 661.8 476.376 661.2 478.37L661.67 492.71L661.78 496.12C661.849 497.176 661.509 498.218 660.83 499.03C656.611 502.263 651.634 504.361 646.374 505.126C641.114 505.891 635.746 505.297 630.78 503.4C628.455 502.534 626.235 501.411 624.16 500.05C623.818 499.843 623.519 499.571 623.28 499.25L623.21 499.18V499.11C622.911 498.734 622.692 498.3 622.568 497.835C622.444 497.371 622.418 496.886 622.49 496.41L622.56 495.69V495.62L622.91 493.21L627.51 461.48L628.45 454.48C628.677 452.059 629.356 449.702 630.45 447.53C638.83 438.42 658.29 448.74 664.95 452.71C664.66 454.67 663.32 463.08 662.36 472.25Z" fill="#FC9D9D"/>
<path d="M565.77 564.08V527.08L604.71 525.58L602.71 564.99L565.77 564.08Z" fill="#21252B"/>
<path d="M661.33 428.31C664.275 430.078 666.741 432.542 668.512 435.485C670.283 438.427 671.306 441.76 671.49 445.19C672.32 460.84 670.87 487.12 651.96 488.19C626.5 491.93 626.39 444 626.39 444C627.18 437.49 630.39 432.94 635.14 429.14C641.91 423.72 653.9 423.85 661.33 428.33V428.31Z" fill="#FC9D9D"/>
<path d="M671.29 456.7C671.29 456.7 668.9 471.51 665.4 475.59C664.95 476.11 663.61 478.79 662.73 475.04C662.536 474.198 662.098 473.432 661.473 472.836C660.847 472.241 660.06 471.842 659.21 471.69L651.7 470.36C650.806 470.203 649.886 470.325 649.065 470.71C648.244 471.094 647.561 471.723 647.11 472.51L645.35 475.59C645.35 475.59 635.94 480.9 630.43 455.03L628.43 454.5C628.43 454.5 628.37 485.63 648.63 488.39C648.65 488.39 670.54 492.92 671.29 456.7Z" fill="black"/>
<path opacity="0.3" d="M574.82 564.05L575.35 525.89C575.9 516.89 578.59 509.89 586.03 505.08L584.37 505.48C578.885 506.649 573.997 509.738 570.587 514.192C567.177 518.645 565.469 524.169 565.77 529.77V564.08L574.82 564.05Z" fill="black"/>
<path opacity="0.15" d="M615.32 631.61C636.8 631.54 660.11 629.78 666.55 629.26L674.66 631.7C678.777 632.608 682.944 633.276 687.14 633.7L699.82 636.4C700.002 636.41 700.184 636.383 700.356 636.321C700.528 636.259 700.685 636.164 700.82 636.04C699 636.6 686.43 632.23 686.43 632.23C679.566 630.959 672.86 628.948 666.43 626.23C666.37 625.97 666.31 625.9 666.25 626.15C666.08 626.99 638.96 626.58 625.12 626.32L587.58 624.32C581.02 624.55 575.24 618.65 575.24 610.5L575.9 564.03H566.85V615.03C566.842 617.317 567.307 619.581 568.215 621.68C569.124 623.778 570.455 625.667 572.127 627.227C573.799 628.788 575.775 629.986 577.932 630.747C580.088 631.508 582.379 631.815 584.66 631.65L615.32 631.61Z" fill="black"/>
<path opacity="0.15" d="M627.22 463.23C628.385 463.431 629.584 463.252 630.64 462.72L626.49 468.25L627.22 463.23Z" fill="black"/>
<path d="M629.54 451.05C629.366 450.373 629.045 449.742 628.6 449.203C628.155 448.664 627.596 448.23 626.964 447.931C626.332 447.633 625.642 447.477 624.943 447.475C624.244 447.473 623.554 447.625 622.92 447.92C616.92 450.03 617.1 463.34 626.92 464.8C632.09 465.6 631.22 462.54 630.64 458.47L629.54 451.05Z" fill="#FC9D9D"/>
<path opacity="0.3" d="M622.41 451.26C622.832 450.975 623.31 450.783 623.811 450.697C624.313 450.611 624.827 450.632 625.32 450.76C625.79 450.931 626.22 451.197 626.583 451.541C626.946 451.885 627.234 452.3 627.43 452.76C627.97 453.894 628.221 455.145 628.16 456.4V457.56C628.16 457.643 628.143 457.725 628.11 457.8C628.077 457.876 628.028 457.944 627.967 458C627.905 458.055 627.833 458.098 627.754 458.123C627.676 458.149 627.592 458.158 627.51 458.15C627.427 458.149 627.345 458.131 627.269 458.096C627.193 458.062 627.125 458.012 627.07 457.95C627.014 457.888 626.972 457.815 626.946 457.736C626.921 457.656 626.912 457.573 626.92 457.49V456.33C626.957 455.279 626.758 454.234 626.34 453.27C626.215 452.959 626.028 452.676 625.791 452.439C625.554 452.202 625.271 452.015 624.96 451.89C624.263 451.768 623.545 451.922 622.96 452.32C622.893 452.359 622.819 452.384 622.743 452.394C622.666 452.404 622.588 452.399 622.514 452.378C622.439 452.358 622.37 452.323 622.309 452.275C622.248 452.227 622.197 452.168 622.16 452.1C622.085 451.955 622.068 451.786 622.115 451.629C622.162 451.473 622.267 451.34 622.41 451.26V451.26Z" fill="black"/>
<path opacity="0.2" d="M661.78 493.14L661.49 484.7C659.09 486.88 652.39 489.7 645.34 487.46C641.771 486.296 638.662 484.031 636.46 480.99C636.426 480.924 636.378 480.866 636.32 480.819C636.262 480.773 636.195 480.739 636.123 480.72C636.051 480.701 635.976 480.698 635.903 480.71C635.829 480.722 635.759 480.749 635.697 480.79C635.635 480.831 635.582 480.885 635.542 480.947C635.502 481.01 635.476 481.08 635.465 481.154C635.454 481.227 635.458 481.302 635.478 481.374C635.498 481.446 635.533 481.513 635.58 481.57C638.44 485.447 642.645 488.118 647.37 489.06C649.373 490.676 651.682 491.87 654.159 492.571C656.635 493.272 659.227 493.466 661.78 493.14V493.14Z" fill="black"/>
<path d="M647.31 460.69C648.476 460.69 649.42 459.746 649.42 458.58C649.42 457.415 648.476 456.47 647.31 456.47C646.145 456.47 645.2 457.415 645.2 458.58C645.2 459.746 646.145 460.69 647.31 460.69Z" fill="black"/>
<path d="M647.61 459.53C647.853 459.53 648.05 459.333 648.05 459.09C648.05 458.847 647.853 458.65 647.61 458.65C647.367 458.65 647.17 458.847 647.17 459.09C647.17 459.333 647.367 459.53 647.61 459.53Z" fill="white"/>
<path d="M664.2 460.69C665.365 460.69 666.31 459.746 666.31 458.58C666.31 457.415 665.365 456.47 664.2 456.47C663.035 456.47 662.09 457.415 662.09 458.58C662.09 459.746 663.035 460.69 664.2 460.69Z" fill="black"/>
<path d="M664.49 459.46C664.733 459.46 664.93 459.263 664.93 459.02C664.93 458.777 664.733 458.58 664.49 458.58C664.247 458.58 664.05 458.777 664.05 459.02C664.05 459.263 664.247 459.46 664.49 459.46Z" fill="white"/>
<path opacity="0.6" d="M576.96 542.93C578.043 542.93 578.92 542.052 578.92 540.97C578.92 539.887 578.043 539.01 576.96 539.01C575.878 539.01 575 539.887 575 540.97C575 542.052 575.878 542.93 576.96 542.93Z" fill="white"/>
<path opacity="0.3" d="M657.06 468.69H654.15C654.064 468.691 653.978 468.675 653.898 468.643C653.818 468.611 653.746 468.564 653.684 468.503C653.623 468.443 653.574 468.371 653.541 468.291C653.507 468.212 653.49 468.126 653.49 468.04C653.49 467.865 653.56 467.697 653.684 467.573C653.807 467.449 653.975 467.38 654.15 467.38H657.06C657.408 467.38 657.741 467.242 657.987 466.996C658.232 466.751 658.37 466.417 658.37 466.07C658.37 465.723 658.232 465.389 657.987 465.144C657.741 464.898 657.408 464.76 657.06 464.76C656.888 464.76 656.723 464.691 656.601 464.57C656.479 464.448 656.41 464.282 656.41 464.11C656.41 463.938 656.479 463.772 656.601 463.65C656.723 463.528 656.888 463.46 657.06 463.46C657.726 463.501 658.351 463.795 658.807 464.28C659.264 464.766 659.518 465.408 659.518 466.075C659.518 466.742 659.264 467.384 658.807 467.869C658.351 468.355 657.726 468.649 657.06 468.69V468.69Z" fill="black"/>
<path d="M650.61 474.53L658.96 475.58C659.016 475.586 659.069 475.611 659.11 475.65C659.148 475.681 659.182 475.719 659.21 475.76C659.219 475.809 659.219 475.86 659.21 475.91C659.225 475.962 659.225 476.018 659.21 476.07C658.766 476.946 658.064 477.666 657.199 478.131C656.333 478.596 655.346 478.784 654.37 478.67C653.394 478.55 652.478 478.131 651.75 477.47C651.012 476.818 650.497 475.95 650.28 474.99V474.93C650.27 474.88 650.27 474.829 650.28 474.78C650.289 474.729 650.31 474.681 650.34 474.64C650.371 474.599 650.412 474.568 650.46 474.55C650.509 474.535 650.561 474.535 650.61 474.55V474.53Z" fill="white"/>
<path d="M642.79 452.61C648.14 449.45 650.79 451.68 650.79 451.68L650.95 452.39C650.95 452.39 645.95 451.6 643.28 453.05L642.79 452.61Z" fill="black"/>
<path d="M668.83 452.75C663.46 449.61 660.83 451.85 660.83 451.85L660.66 452.56C660.66 452.56 665.66 451.75 668.34 453.19L668.83 452.75Z" fill="black"/>
<path d="M619.91 496.82C622.15 507.92 639.16 509.31 639.16 509.31C657.61 512.66 663.92 498.93 663.92 498.93L662.83 493.58C662.801 493.493 662.741 493.421 662.662 493.375C662.583 493.329 662.49 493.313 662.4 493.33C638.11 498.77 625.4 493.04 622.79 491.21C622.707 491.157 622.613 491.122 622.514 491.109C622.416 491.095 622.316 491.103 622.222 491.131C622.127 491.16 622.039 491.208 621.965 491.274C621.89 491.339 621.831 491.419 621.79 491.51L619.91 496.82Z" fill="#21252B"/>
<path opacity="0.3" d="M622.61 499.08C622.61 499.08 638.68 506.49 661.09 500.32" stroke="black" stroke-miterlimit="10"/>
<path d="M914 527.58C882.32 528.82 851.89 532.86 818.62 538.41C820.907 568.223 823.24 597.697 825.62 626.83C861.07 621 900.42 611.36 936.73 615.64C934.78 590.34 932.81 567.31 930.82 542.48L914 527.58Z" fill="#DADDDF"/>
<g opacity="0.2">
<path opacity="0.2" d="M835.46 546.24C836.77 562.4 840.09 599.49 841.46 615.51L844.31 615.26C842.98 599.26 839.66 562.26 838.31 546.13L835.46 546.24Z" fill="black"/>
<path opacity="0.2" d="M842.63 544.86C843.96 560.86 847.29 597.86 848.63 613.8L851.49 613.45C850.15 597.56 846.82 560.63 845.49 544.63C844.53 544.72 843.58 544.79 842.63 544.86Z" fill="black"/>
<path opacity="0.2" d="M849.83 544.2C851.16 560.13 854.5 597.01 855.83 612.85C856.83 612.72 857.74 612.58 858.7 612.43C857.35 596.61 854.01 559.76 852.7 543.86L849.83 544.2Z" fill="black"/>
<path opacity="0.2" d="M857.05 543.29C859.05 566.52 860.98 588.66 862.96 611.75L865.83 611.25C863.83 588.18 861.83 566.07 859.91 542.88L857.05 543.29Z" fill="black"/>
<path opacity="0.2" d="M864.28 542.2C866.28 565.34 868.28 587.42 870.21 610.48L873.08 609.96C871.08 586.9 869.08 564.84 867.15 541.73L864.28 542.2Z" fill="black"/>
<path opacity="0.2" d="M871.53 541C873.53 564.09 875.53 586.13 877.46 609.19L880.34 608.68C878.34 585.61 876.34 563.57 874.4 540.5L871.53 541Z" fill="black"/>
<path opacity="0.2" d="M878.78 540.7C880.78 563.7 882.78 585.8 884.72 608.89L887.59 608.4C885.59 585.29 883.59 563.23 881.65 540.18L878.78 540.7Z" fill="black"/>
<path opacity="0.2" d="M886 539.39C888 562.45 890 584.54 891.93 607.69L894.8 607.24C892.8 584.06 890.8 561.96 888.88 538.88L886 539.39Z" fill="black"/>
<path opacity="0.2" d="M893.28 539.13C895.28 562.23 897.28 584.38 899.19 607.62C900.19 607.49 901.1 607.36 902.06 607.25C900.06 583.96 898.13 561.77 896.15 538.65L893.28 539.13Z" fill="black"/>
<path opacity="0.2" d="M901.53 550C903.53 573.17 904.46 583.41 906.41 606.78L909.26 606.5C907.32 583.07 906.36 572.78 904.39 549.57L901.53 550Z" fill="black"/>
<path opacity="0.2" d="M908.75 549.94C910.75 573.21 911.66 583.59 913.6 607.11L916.44 606.94C914.51 583.35 913.57 572.94 911.61 549.59C910.66 549.7 909.71 549.81 908.75 549.94Z" fill="black"/>
<path opacity="0.2" d="M916 549.12C917.95 572.53 918.89 583.12 920.81 606.78C921.75 606.78 922.69 606.78 923.64 606.78C921.72 582.98 920.79 572.37 918.85 548.9L916 549.12Z" fill="black"/>
</g>
<path opacity="0.2" d="M913.96 527.58L915 543L930.75 542.48L913.96 527.58Z" fill="black"/>
<path d="M1025 608.47C1009.67 632.79 994.147 657.457 978.44 682.47C1018 671.26 1018.3 744.47 1061.55 733.96L1091.32 687.53L1102.32 671.19C1063.68 678.38 1066.45 601.44 1025 608.47Z" fill="#DADDDF"/>
<g opacity="0.2">
<path opacity="0.2" d="M1048.55 725.85C1059.61 708.66 1068.61 693.54 1079.63 676.41C1078.87 676.072 1078.12 675.692 1077.4 675.27C1066.4 692.35 1057.4 707.44 1046.4 724.6C1047.09 725.057 1047.81 725.474 1048.55 725.85Z" fill="black"/>
<path opacity="0.2" d="M1043.3 722.27C1054.3 705.13 1063.3 690.08 1074.3 673.04C1073.64 672.49 1073.01 671.91 1072.4 671.29C1061.4 688.29 1052.48 703.35 1041.46 720.48C1042 721.11 1042.66 721.7 1043.3 722.27Z" fill="black"/>
<path opacity="0.2" d="M1038.76 717.43C1049.76 700.29 1058.76 685.25 1069.76 668.23C1069.2 667.52 1068.66 666.77 1068.14 666.01C1057.14 683.01 1048.21 698.08 1037.14 715.24C1037.66 716 1038.2 716.73 1038.76 717.43Z" fill="black"/>
<path opacity="0.2" d="M1034.75 711.67C1045.83 694.43 1054.84 679.31 1065.84 662.23C1065.35 661.39 1064.84 660.53 1064.41 659.65C1053.41 676.76 1044.41 691.92 1033.26 709.21C1033.75 710 1034.24 710.87 1034.75 711.67Z" fill="black"/>
<path opacity="0.2" d="M1030.05 706.33C1041.21 688.96 1051.3 672.71 1062.35 655.54C1061.91 654.62 1061.47 653.68 1061.04 652.74C1049.96 669.97 1039.84 686.28 1028.65 703.74C1029.11 704.59 1029.58 705.46 1030.05 706.33Z" fill="black"/>
<path opacity="0.2" d="M1026.53 699.7C1037.79 682.14 1047.98 665.7 1059.11 648.39C1058.69 647.39 1058.28 646.47 1057.86 645.5C1046.68 662.91 1036.45 679.42 1025.13 697.06C1025.6 697.94 1026.07 698.82 1026.53 699.7Z" fill="black"/>
<path opacity="0.2" d="M1020.94 695.15C1029.15 682.33 1040.42 664.75 1054.94 642.15C1054.51 641.15 1054.09 640.24 1053.66 639.3C1039.09 662.02 1027.76 679.72 1019.49 692.65C1020 693.45 1020.46 694.3 1020.94 695.15Z" fill="black"/>
<path opacity="0.2" d="M1017.18 689C1025.56 675.88 1035.98 659 1050.65 636.12C1050.2 635.21 1049.74 634.32 1049.28 633.44C1034.54 656.44 1024.05 673.44 1015.58 686.72C1016.13 687.41 1016.66 688.17 1017.18 689Z" fill="black"/>
<path opacity="0.2" d="M1013 683.45C1021.59 669.97 1032.22 653.77 1047.07 630.53C1046.57 629.71 1046.07 628.92 1045.53 628.15C1030.6 651.54 1019.89 667.9 1011.2 681.54C1011.82 682.15 1012.42 682.79 1013 683.45Z" fill="black"/>
<path opacity="0.2" d="M1008.26 679C1017.1 665.1 1027.96 648.48 1043.03 624.84C1042.45 624.15 1041.86 623.5 1041.25 622.84C1026.08 646.66 1015.12 663.46 1006.18 677.54C1006.89 678 1007.59 678.48 1008.26 679Z" fill="black"/>
<path opacity="0.2" d="M1003.76 674.86C1012.88 660.48 1022.99 644.4 1038.31 620.3C1037.64 619.794 1036.94 619.327 1036.22 618.9C1020.79 643.21 1010.56 659.49 1001.32 674.08C1002.15 674.296 1002.96 674.557 1003.76 674.86V674.86Z" fill="black"/>
<path opacity="0.2" d="M997.29 673.44C1006.73 658.52 1017.14 641.9 1032.75 617.28C1031.94 616.986 1031.11 616.746 1030.27 616.56C1014.54 641.42 1003.99 658.27 994.42 673.42C995.376 673.371 996.334 673.378 997.29 673.44V673.44Z" fill="black"/>
</g>
</svg>