<?xml version="1.0" encoding="utf-8"?>
<!-- Generator: Adobe Illustrator 19.0.0, SVG Export Plug-In . SVG Version: 6.00 Build 0)  -->
<svg version="1.1" id="Layer_1" xmlns="http://www.w3.org/2000/svg" xmlns:xlink="http://www.w3.org/1999/xlink" x="0px" y="0px"
	 viewBox="0 0 1024 1024" style="enable-background:new 0 0 1024 1024;" xml:space="preserve">
<style type="text/css">
	.st0{fill:none;stroke:url(#SVGID_1_);stroke-miterlimit:10;}
	.st1{fill:url(#SVGID_2_);}
</style>
<g>
	<linearGradient id="SVGID_1_" gradientUnits="userSpaceOnUse" x1="142.4592" y1="504" x2="864.3641" y2="504">
		<stop  offset="0" style="stop-color:#2980B9"/>
		<stop  offset="1" style="stop-color:#2C3E50"/>
	</linearGradient>
	<path class="st0" d="M287.5,143.5l263.1,328.9c14.6,18.2,14.6,44.1,0.1,62.4L288.5,864.5h-144l288-360l-289-361H287.5z
		 M603.5,476.5c0,0,0,0,259.8-331.2H719.7L532,386L603.5,476.5z M532,623.8l187.7,240.7h143.7C603.5,533.3,603.5,533.3,603.5,533.3
		L532,623.8z"/>
	<linearGradient id="SVGID_2_" gradientUnits="userSpaceOnUse" x1="143.5" y1="504" x2="863.3362" y2="504">
		<stop  offset="0" style="stop-color:#FF5F6D"/>
		<stop  offset="1" style="stop-color:#FFC371"/>
	</linearGradient>
	<path class="st1" d="M287.5,143.5l263.1,328.9c14.6,18.2,14.6,44.1,0.1,62.4L288.5,864.5h-144l288-360l-289-361H287.5z
		 M603.5,476.5c0,0,0,0,259.8-331.2H719.7L532,386L603.5,476.5z M532,623.8l187.7,240.7h143.7C603.5,533.3,603.5,533.3,603.5,533.3
		L532,623.8z"/>
</g>
</svg>
