<?xml version="1.0" encoding="utf-8"?>
<!-- Generator: Adobe Illustrator 19.0.0, SVG Export Plug-In . SVG Version: 6.00 Build 0)  -->
<svg version="1.1" id="Layer_1" xmlns="http://www.w3.org/2000/svg" xmlns:xlink="http://www.w3.org/1999/xlink" x="0px" y="0px"
	 viewBox="0 0 225 48.8" style="enable-background:new 0 0 225 48.8;" xml:space="preserve">
<style type="text/css">
	.st0{fill:url(#SVGID_1_);}
</style>
<g>
	
		<linearGradient id="SVGID_1_" gradientUnits="userSpaceOnUse" x1="6.7503" y1="23.735" x2="42.7537" y2="23.735" gradientTransform="matrix(1 0 0 -1 0 48.11)">
		<stop  offset="0" style="stop-color:#FF5F6D"/>
		<stop  offset="1" style="stop-color:#FFC371"/>
	</linearGradient>
	<path class="st0" d="M14,7.1l13.2,15.8c0.7,0.9,0.7,2.1,0,3L14,41.7H6.8l14.4-17.3L6.8,7.1H14z M29.8,23.1c0,0,0,0,13-15.9h-7.2
		l-9.4,11.5L29.8,23.1z M26.2,30.1l9.4,11.5h7.2c-13-15.9-13-15.9-13-15.9L26.2,30.1z"/>
</g>
<g>
	<path d="M57.7,21.7l3.2-5.9h4l-5,8.5l5.1,8.6h-4.1l-3.3-6l-3.3,6h-4.1l5.1-8.6l-5-8.5h4L57.7,21.7z"/>
	<path d="M66.8,31.2c0-0.5,0.2-1,0.5-1.3s0.8-0.5,1.4-0.5c0.6,0,1,0.2,1.4,0.5s0.5,0.8,0.5,1.3c0,0.5-0.2,1-0.5,1.3S69.2,33,68.7,33
		c-0.6,0-1-0.2-1.4-0.5S66.8,31.7,66.8,31.2z"/>
	<path d="M84,25.9h-6.8v7h-3.5V15.8h11.1v2.8h-7.6V23H84V25.9z"/>
	<path d="M97.2,25.4h-6.8V30h7.9v2.8H86.9V15.8h11.4v2.8h-7.9v4.1h6.8V25.4z"/>
	<path d="M106.7,26.6h-2.8v6.2h-3.5V15.8h6.3c2,0,3.6,0.4,4.7,1.3s1.6,2.2,1.6,3.8c0,1.2-0.3,2.1-0.8,2.9s-1.3,1.4-2.3,1.9l3.7,7
		v0.2h-3.8L106.7,26.6z M103.9,23.7h2.8c0.9,0,1.6-0.2,2.1-0.7s0.7-1.1,0.7-1.9c0-0.8-0.2-1.4-0.7-1.9s-1.2-0.7-2.1-0.7h-2.8V23.7z"
		/>
</g>
<path d="M124.3,34.5h-2.1V14.3h2.1V34.5z"/>
<g>
	<path d="M147.6,32.8h-3.5l-6.8-11.2v11.2h-3.5V15.7h3.5l6.9,11.3V15.7h3.5V32.8z"/>
	<path d="M157.8,32.8c-0.2-0.3-0.3-0.7-0.3-1.1c-0.8,0.9-1.9,1.4-3.2,1.4c-1.2,0-2.3-0.4-3.1-1.1s-1.2-1.6-1.2-2.7
		c0-1.3,0.5-2.4,1.5-3.1s2.4-1.1,4.3-1.1h1.6v-0.7c0-0.6-0.2-1.1-0.5-1.4s-0.8-0.5-1.4-0.5c-0.6,0-1,0.1-1.3,0.4s-0.5,0.6-0.5,1.1
		h-3.4c0-0.7,0.2-1.4,0.7-2s1.1-1.1,1.9-1.5s1.8-0.5,2.8-0.5c1.6,0,2.8,0.4,3.7,1.2s1.4,1.9,1.4,3.3v5.5c0,1.2,0.2,2.1,0.5,2.7v0.2
		H157.8z M155,30.4c0.5,0,1-0.1,1.4-0.3s0.7-0.5,0.9-0.9V27h-1.3c-1.7,0-2.6,0.6-2.7,1.8l0,0.2c0,0.4,0.1,0.8,0.4,1
		S154.5,30.4,155,30.4z"/>
	<path d="M167.4,17v3.1h2.2v2.5h-2.2v6.3c0,0.5,0.1,0.8,0.3,1s0.5,0.3,1,0.3c0.4,0,0.7,0,1-0.1v2.6c-0.7,0.2-1.3,0.3-2.1,0.3
		c-2.4,0-3.6-1.2-3.6-3.6v-6.8h-1.9v-2.5h1.9V17H167.4z"/>
	<path d="M175.2,26.8v6h-3.5V15.7h6.7c1.3,0,2.4,0.2,3.4,0.7s1.7,1.1,2.2,2s0.8,1.8,0.8,2.9c0,1.7-0.6,3-1.7,4s-2.7,1.4-4.8,1.4
		H175.2z M175.2,23.9h3.1c0.9,0,1.6-0.2,2.1-0.7s0.7-1.1,0.7-1.9c0-0.8-0.2-1.5-0.7-2s-1.2-0.8-2-0.8h-3.2V23.9z"/>
	<path d="M194.1,23.3c-0.5-0.1-0.9-0.1-1.2-0.1c-1.3,0-2.1,0.4-2.5,1.3v8.3h-3.4V20.1h3.2l0.1,1.5c0.7-1.2,1.6-1.7,2.8-1.7
		c0.4,0,0.7,0.1,1.1,0.2L194.1,23.3z"/>
	<path d="M194.7,26.3c0-1.3,0.2-2.4,0.7-3.4s1.2-1.7,2.1-2.3s2-0.8,3.2-0.8c1.7,0,3.1,0.5,4.2,1.6s1.7,2.5,1.8,4.3l0,0.9
		c0,1.9-0.5,3.5-1.6,4.7s-2.5,1.8-4.4,1.8s-3.3-0.6-4.4-1.8s-1.6-2.8-1.6-4.8V26.3z M198.1,26.6c0,1.2,0.2,2.1,0.7,2.8
		c0.5,0.6,1.1,1,1.9,1c0.8,0,1.5-0.3,1.9-0.9c0.5-0.6,0.7-1.6,0.7-3c0-1.2-0.2-2.1-0.7-2.7s-1.1-1-1.9-1c-0.8,0-1.5,0.3-1.9,1
		S198.1,25.2,198.1,26.6z"/>
</g>
</svg>
